<svg width="125" height="125" viewBox="0 0 125 125" fill="none" xmlns="http://www.w3.org/2000/svg">
<path d="M21.83 3.45C25.86 8.26 29.24 16.06 29.5 23.08C44.58 34.91 60.57 5.66 22.74 2.8L21.83 3.45ZM83.06 67.8H37.95L27.55 63.9H28.33C35.48 63.9 43.54 60.26 43.54 58.83V57.79H76.95V61.04H80.07C83.32 61.04 87.74 60 90.86 59.09L83.06 67.8ZM76.95 42.71V54.15H43.54V42.71H76.95ZM102.3 72.61C105.29 72.09 106.46 71.18 107.24 70.01L92.03 58.7C93.46 58.18 94.37 57.66 94.37 57.4V45.18C96.84 44.66 98.4 43.62 99.05 42.71L83.19 31.01L75.65 39.07H44.32L25.99 32.18V63.38L18.84 60.65V103.42H22.09C31.19 103.42 36.65 100.82 36.65 99.65V71.44H83.58V100.56C77.86 100.04 71.36 99.65 63.82 99.39C67.07 94.19 68.37 88.34 69.54 82.1C72.66 82.1 74.09 80.8 74.61 79.11L51.21 74.69C50.17 95.75 46.79 110.05 3.11 122.53L3.89 124.48C38.86 119.54 54.33 112 61.87 102.38C80.07 107.71 92.29 115.64 99.05 121.1C113.87 131.37 138.44 107.71 87.48 101.08C96.84 100.95 102.3 98.35 102.3 97.7V72.61ZM108.28 16.71L98.66 26.46H80.59C88.39 22.17 96.71 16.58 101.91 12.55C104.9 12.68 106.33 11.64 106.98 10.08L82.15 2.53999C81.11 9.43 78.9 19.31 76.69 26.46H71.1V5.91999C74.35 5.39999 75.13 4.22999 75.26 2.67L52.25 0.849998V26.46H19.23C18.45 23.86 17.28 21 15.72 18.14L14.16 18.27C15.2 23.86 11.43 28.93 7.92 31.01C2.85 32.83 -0.92 36.86 0.38 42.84C1.94 48.82 8.18 51.29 13.38 48.95C18.58 46.74 21.96 39.85 20.14 30.1H99.96C99.7 35.3 99.31 42.06 98.79 46.74L99.57 47.52C106.07 44.27 114.78 38.42 119.85 34.26C122.71 34 123.88 33.61 124.92 32.44L108.28 16.71Z" fill="#FF0000"/>
</svg>
