<svg width="129" height="105" viewBox="0 0 129 105" fill="none" xmlns="http://www.w3.org/2000/svg">
<path d="M128.979 12.4542C125.326 17.8168 120.906 22.3847 115.717 26.1581C115.772 26.9212 115.8 28.0693 115.8 29.6025C115.8 36.7152 114.763 43.8104 112.689 50.8881C110.615 57.9658 107.465 64.76 103.24 71.2706C99.0145 77.7813 93.9826 83.5394 88.1441 88.5449C82.3055 93.5504 75.2657 97.5443 67.0247 100.527C58.7837 103.509 49.9734 105 40.594 105C25.8091 105 12.2777 101.034 0 93.1023C1.90661 93.3193 4.03321 93.4278 6.37981 93.4278C18.6575 93.4278 29.5979 89.6545 39.2007 82.1077C33.4739 81.9957 28.3442 80.2315 23.8117 76.8152C19.2791 73.3988 16.1678 69.0374 14.4777 63.7309C16.2795 64.0039 17.9452 64.1404 19.4747 64.1404C21.8213 64.1404 24.1399 63.8394 26.4306 63.2373C20.3197 61.9772 15.2599 58.9284 11.2511 54.0909C7.24232 49.2534 5.23794 43.6354 5.23794 37.2367V36.9112C8.9464 38.9904 12.9307 40.1105 17.1909 40.2715C13.5872 37.8633 10.7238 34.72 8.6007 30.8416C6.47759 26.9632 5.41254 22.7523 5.40556 18.2088C5.40556 13.3923 6.60679 8.93639 9.00926 4.84098C15.6091 12.9898 23.6441 19.511 33.1143 24.4044C42.5845 29.2979 52.7181 32.0177 63.5153 32.5638C63.0823 30.4845 62.8658 28.4613 62.8658 26.4942C62.8658 19.1644 65.4428 12.9163 70.597 7.74978C75.7511 2.58326 81.9842 0 89.2964 0C96.9368 0 103.376 2.78978 108.614 8.36934C114.564 7.22122 120.158 5.08951 125.396 1.9742C123.378 8.26083 119.505 13.1298 113.779 16.5812C118.856 16.0351 123.93 14.6665 129 12.4752L128.979 12.4542Z" fill="#00ACED"/>
</svg>
