<svg width="136" height="110" viewBox="0 0 136 110" fill="none" xmlns="http://www.w3.org/2000/svg">
<path d="M115.807 66.9885C112.684 57.6681 103.088 54.2642 100.903 54.0614C98.7187 53.8585 96.7388 52.6626 98.1879 50.1908C99.6376 47.7189 102.312 40.5255 97.168 35.46C92.0227 30.3743 80.7723 32.2991 72.81 35.5818C64.8685 38.8645 65.2968 36.5746 65.5417 34.3259C65.8077 31.955 70.0947 18.703 56.9871 17.1023C39.817 15.0154 17.7877 36.1087 10.0089 48.2665C-1.75144 66.6246 0.107211 79.0455 0.107211 79.0455H0.18883C1.59731 96.188 27.0366 109.845 58.2122 109.845C85.0196 109.845 107.6 99.7338 114.276 85.9959C114.276 85.9959 114.296 85.9349 114.357 85.8332C115.052 84.3548 115.583 82.8544 115.91 81.2944C116.848 77.6067 117.564 72.2579 115.807 66.9886V66.9885ZM54.3542 102.348C32.161 102.348 14.1537 90.5136 14.1537 75.9246C14.1537 61.3358 32.1408 49.5027 54.3542 49.5027C76.5467 49.5027 94.5545 61.3358 94.5545 75.9246C94.5545 90.5336 76.5467 102.348 54.3542 102.348V102.348Z" fill="#E71F19"/>
<path d="M109.01 43.7883C109.417 43.9709 109.846 44.0513 110.275 44.0513C111.541 44.0513 112.766 43.3015 113.276 42.0654C114.113 40.1004 114.542 38.0136 114.542 35.8448C114.542 27.0514 107.335 19.8981 98.4738 19.8981C96.3096 19.8981 94.2071 20.3234 92.2263 21.1542C90.5722 21.8432 89.7971 23.748 90.4905 25.4096C91.1847 27.0507 93.104 27.8208 94.7776 27.1318C95.9623 26.6449 97.2076 26.3817 98.4941 26.3817C103.761 26.3817 108.028 30.6373 108.028 35.8448C108.028 37.1209 107.784 38.3577 107.273 39.532C107.102 39.9247 107.012 40.3475 107.007 40.7756C107.003 41.2037 107.083 41.6284 107.245 42.0247C107.407 42.4211 107.646 42.7812 107.949 43.0838C108.252 43.3864 108.612 43.6254 109.008 43.7869L109.01 43.7883H109.01Z" fill="#F5AA15"/>
<path d="M98.2905 0C94.6361 0 91.0222 0.526861 87.5513 1.53977C84.9588 2.3098 83.489 5.00462 84.2444 7.57813C85.0196 10.1519 87.7348 11.6108 90.3287 10.861C92.9154 10.1071 95.5962 9.72506 98.2905 9.72624C113.665 9.72624 126.18 22.1479 126.18 37.4056C126.18 40.1406 125.771 42.8556 124.995 45.4492C124.22 48.0229 125.669 50.7387 128.262 51.5077C128.732 51.6504 129.221 51.7106 129.691 51.7106C131.794 51.7106 133.733 50.3529 134.387 48.2658C135.449 44.7609 136 41.1135 136 37.4056C135.98 16.7775 119.074 0 98.2905 0V0Z" fill="#F5AA15"/>
<path d="M50.6383 59.147C38.7965 59.147 29.2008 67.4747 29.2008 77.7693C29.2008 88.0618 38.7965 96.3907 50.6383 96.3907C62.4797 96.3907 72.0754 88.0625 72.0754 77.7693C72.0754 67.4755 62.4796 59.147 50.6383 59.147ZM43.6354 89.8655C39.4906 89.8655 36.1223 86.5227 36.1223 82.4091C36.1223 78.2961 39.4913 74.9525 43.6354 74.9525C47.7801 74.9525 51.1486 78.296 51.1486 82.4091C51.1486 86.522 47.7801 89.8655 43.6354 89.8655ZM57.6823 76.4316C56.7842 77.9916 54.9669 78.6403 53.6399 77.8696C52.3129 77.1206 51.9864 75.2357 52.8842 73.6757C53.7829 72.1151 55.5997 71.4664 56.9264 72.237C58.2534 73.007 58.5806 74.8915 57.6821 76.4316H57.6823Z" fill="#040000"/>
</svg>
