<svg width="143" height="117" viewBox="0 0 143 117" fill="none" xmlns="http://www.w3.org/2000/svg">
<path d="M143 74.6966C143 54.4564 122.746 37.9718 100.011 37.9718C75.9294 37.9718 56.965 54.4707 56.965 74.6966C56.965 94.9654 75.9294 111.421 100.011 111.421C105.057 111.421 110.146 110.146 115.206 108.884L129.081 116.481L125.268 103.838C135.431 96.2125 143 86.1068 143 74.6966ZM86.6945 69.0775C83.5266 69.0775 80.9608 66.5116 80.9608 63.3437C80.9608 60.1758 83.5266 57.61 86.6945 57.61C89.8624 57.61 92.4283 60.1758 92.4283 63.3437C92.4283 66.4973 89.8624 69.0775 86.6945 69.0775ZM114.546 69.0345C111.378 69.0345 108.813 66.4686 108.813 63.3007C108.813 60.1328 111.378 57.567 114.546 57.567C117.714 57.567 120.28 60.1328 120.28 63.3007C120.28 66.4686 117.714 69.0345 114.546 69.0345Z" fill="#00C800"/>
<path d="M50.6148 0C22.7917 0 0 18.9644 0 43.0462C0 56.9506 7.5829 68.3608 20.2545 77.2194L15.1945 92.4426L32.8831 83.5696C39.2189 84.8167 44.2933 86.1068 50.6148 86.1068C52.2059 86.1068 53.7827 86.0351 55.3451 85.9061C54.3561 82.5232 53.7827 78.9826 53.7827 75.2986C53.7827 53.1806 72.7758 35.234 96.8146 35.234C98.463 35.234 100.083 35.3486 101.688 35.535C97.3019 15.1515 75.4993 0 50.6148 0ZM33.6142 34.7323C29.8156 34.7323 26.7337 31.6504 26.7337 27.8518C26.7337 24.0531 29.8156 20.9712 33.6142 20.9712C37.4128 20.9712 40.4947 24.0531 40.4947 27.8518C40.4947 31.6504 37.4128 34.7323 33.6142 34.7323ZM68.9628 34.7323C65.1642 34.7323 62.0823 31.6504 62.0823 27.8518C62.0823 24.0531 65.1642 20.9712 68.9628 20.9712C72.7614 20.9712 75.8433 24.0531 75.8433 27.8518C75.8433 31.6504 72.7614 34.7323 68.9628 34.7323Z" fill="#00C800"/>
</svg>
