<svg width="113" height="117" viewBox="0 0 113 117" fill="none" xmlns="http://www.w3.org/2000/svg">
<path d="M109.101 0C110.135 0 111.127 0.410892 111.858 1.14228C112.589 1.87368 113 2.86566 113 3.9V83.616C113 84.6503 112.589 85.6423 111.858 86.3737C111.127 87.1051 110.135 87.516 109.101 87.516L95.6508 87.5121V117L70.3365 87.5121H3.8987C3.38672 87.5121 2.87975 87.4112 2.40673 87.2152C1.93372 87.0192 1.50393 86.732 1.1419 86.3698C0.779876 86.0077 0.492699 85.5777 0.296771 85.1046C0.100843 84.6314 -1.49996e-08 84.1243 0 83.6121V3.9C0 2.86566 0.410755 1.87368 1.1419 1.14228C1.87305 0.410892 2.8647 0 3.8987 0H109.101ZM94.7541 54.6975H18.2264V65.637H94.758V54.6975H94.7541ZM94.7736 21.879H18.2264V32.8185H94.7736V21.879Z" fill="#3586FF"/>
</svg>
