<?xml version="1.0" encoding="UTF-8"?>
<svg width="987px" height="987px" viewBox="0 0 987 987" version="1.1" xmlns="http://www.w3.org/2000/svg" xmlns:xlink="http://www.w3.org/1999/xlink">
    <!-- Generator: Sketch 60.1 (88133) - https://sketch.com -->
    <title>路径</title>
    <desc>Created with Sketch.</desc>
    <g id="页面-1" stroke="none" stroke-width="1" fill="none" fill-rule="evenodd">
        <g id="clear" fill="#8A8A8A" fill-rule="nonzero">
            <path d="M974.6625,858.69 C982.447983,866.411901 986.827206,876.923281 986.827206,887.88875 C986.827206,898.854218 982.447983,909.365598 974.6625,917.087499 L917.087499,974.6625 C909.365598,982.447983 898.854218,986.827206 887.88875,986.827206 C876.923281,986.827206 866.411901,982.447983 858.69,974.6625 L493.5,609.4725 L128.31,974.6625 C120.588099,982.447983 110.076719,986.827206 99.1112503,986.827206 C88.1457817,986.827206 77.634402,982.447983 69.9125006,974.6625 L12.3375,917.087499 C4.55201727,909.365598 0.172793965,898.854218 0.172793965,887.88875 C0.172793965,876.923281 4.55201727,866.411901 12.3375,858.69 L377.5275,493.5 L12.3375,128.31 C4.55201727,120.588099 0.172793965,110.076719 0.172793965,99.1112503 C0.172793965,88.1457817 4.55201727,77.634402 12.3375,69.9125006 L69.9125006,12.3375 C77.634402,4.55201727 88.1457817,0.172793965 99.1112503,0.172793965 C110.076719,0.172793965 120.588099,4.55201727 128.31,12.3375 L493.5,377.5275 L858.69,12.3375 C866.411901,4.55201727 876.923281,0.172793965 887.88875,0.172793965 C898.854218,0.172793965 909.365598,4.55201727 917.087499,12.3375 L974.6625,69.9125006 C982.447983,77.634402 986.827206,88.1457817 986.827206,99.1112503 C986.827206,110.076719 982.447983,120.588099 974.6625,128.31 L609.4725,493.5 L974.6625,858.69 Z" id="路径"></path>
        </g>
    </g>
</svg>