<?xml version="1.0" standalone="no"?><!DOCTYPE svg PUBLIC "-//W3C//DTD SVG 1.1//EN" "http://www.w3.org/Graphics/SVG/1.1/DTD/svg11.dtd"><svg t="1612242490441" class="icon" viewBox="0 0 1024 1024" version="1.1" xmlns="http://www.w3.org/2000/svg" p-id="1522" xmlns:xlink="http://www.w3.org/1999/xlink" width="200" height="200"><defs><style type="text/css"></style></defs><path d="M798.387 434.84c0 90.323-32.876 173.049-87.326 236.742 0 0 195.358 195.62 232.073 231.577 30.171 29.522-4.434 75.37-43.42 33.9-23.467-24.98-228.233-225.844-228.233-225.844-63.804 54.933-146.802 88.132-237.588 88.132-201.305 0-364.492-163.235-364.492-364.506 0-201.271 163.187-364.477 364.492-364.477 201.307 0 364.494 163.206 364.494 364.477zM433.893 128.137c-169.35 0-306.69 137.334-306.69 306.677 0 169.398 137.34 306.733 306.69 306.733 169.404 0 306.745-137.335 306.745-306.733 0-169.343-137.34-306.677-306.745-306.677z" p-id="1523" fill="#8a8a8a"></path></svg>