<svg width="531" height="56" viewBox="0 0 531 56" fill="none" xmlns="http://www.w3.org/2000/svg">
<path d="M44.16 1.78C43.96 1.98 43.86 2.3 43.86 2.74C43.86 2.86 43.86 3.06 43.86 3.34C43.9 3.62 43.9 3.84 43.86 4L43.8 4.06L43.62 7.24C43.58 8.04 43.56 8.88 43.56 9.76C43.56 11.52 43.54 12.66 43.5 13.18C43.46 13.3 43.38 13.48 43.26 13.72C43.18 13.96 43.06 14.16 42.9 14.32C42.78 14.44 42.56 14.54 42.24 14.62C41.92 14.58 41.48 14.62 40.92 14.74C40.36 14.86 39.98 14.94 39.78 14.98C39.3 15.14 38.88 15.22 38.52 15.22C37.48 15.46 36.62 15.6 35.94 15.64L33.6 16.06L32.1 16.24C30.46 16.44 29.32 16.64 28.68 16.84C28.32 16.84 27.96 16.88 27.6 16.96C27.24 17 26.9 17.02 26.58 17.02C26.1 17.02 25.72 16.94 25.44 16.78C25.56 17.1 25.62 17.66 25.62 18.46C25.74 18.7 25.84 19.08 25.92 19.6C26.04 20.12 26.14 20.5 26.22 20.74C26.46 22.34 26.84 23.52 27.36 24.28C27.56 24.48 27.84 24.68 28.2 24.88C28.44 24.96 28.74 25 29.1 25L30.6 24.88C31.44 24.92 32.66 24.72 34.26 24.28L36.72 24.16L38.1 23.92L39.54 23.68L42.3 23.32L42.36 23.26H43.5V25.12L43.56 30.76C43.6 31.6 43.62 33.48 43.62 36.4C43.62 41.32 43.38 45.44 42.9 48.76C42.74 48.92 42.44 49.14 42 49.42C41.56 49.74 41.14 49.96 40.74 50.08C40.5 50.16 40.18 50.2 39.78 50.2L38.16 50.08C38.04 50.08 37.72 50.02 37.2 49.9C36.68 49.82 36.24 49.78 35.88 49.78H35.7C35.58 49.78 35.52 49.82 35.52 49.9C35.52 50.02 35.56 50.16 35.64 50.32C36.16 50.88 36.92 51.5 37.92 52.18L38.76 52.54C39.52 52.94 40.14 53.18 40.62 53.26C41.5 53.62 42.18 53.86 42.66 53.98C43.14 54.1 43.66 54.14 44.22 54.1C44.94 53.74 45.48 53.04 45.84 52C45.96 51.32 46.02 50.54 46.02 49.66C46.1 49.14 46.22 47.92 46.38 46C46.38 45.36 46.4 44.94 46.44 44.74V42.46C46.44 38.86 46.42 36.54 46.38 35.5L46.32 28.6C46.32 25.76 46.34 23.92 46.38 23.08C46.46 23.08 46.64 23.06 46.92 23.02C47.2 22.94 47.46 22.84 47.7 22.72L48.96 22.6C49.16 22.48 49.56 22.42 50.16 22.42C50.36 22.18 50.74 22.02 51.3 21.94C52.06 21.7 52.6 21.4 52.92 21.04C52.96 20.96 52.98 20.82 52.98 20.62C52.98 20.26 52.84 19.8 52.56 19.24C52.32 18.08 52.08 17.22 51.84 16.66C51.6 16.1 51.22 15.64 50.7 15.28C49.82 14.8 49.12 14.48 48.6 14.32C47.96 14.2 47.3 14.14 46.62 14.14L46.68 11.26C46.72 10.82 46.74 9.86 46.74 8.38C46.74 6.86 46.68 5.74 46.56 5.02C46.48 4.78 46.4 4.58 46.32 4.42C46.28 4.26 46.24 4.14 46.2 4.06C45.76 3.26 45.28 2.58 44.76 2.02L44.4 1.84L44.16 1.78ZM18.18 8.68C17.02 8.72 15.86 8.86 14.7 9.1C13.54 9.3 12.06 9.66 10.26 10.18L7.14 10.96H7.08C6.76 10.96 6.44 10.86 6.12 10.66C5.8 10.46 5.62 10.34 5.58 10.3C4.5 9.94 3.58 9.76 2.82 9.76L2.34 9.64C1.98 9.64 1.8 9.8 1.8 10.12L1.62 10.06C1.5 10.06 1.44 10.14 1.44 10.3C1.44 10.42 1.46 10.6 1.5 10.84C1.58 11.04 1.62 11.26 1.62 11.5V11.56L1.5 12.82C1.5 12.9 1.5 13.08 1.5 13.36C1.54 13.64 1.54 13.9 1.5 14.14C1.42 14.94 1.38 15.86 1.38 16.9V18.1C1.38 18.26 1.38 18.6 1.38 19.12C1.42 19.6 1.42 20.08 1.38 20.56L1.26 22.18C1.26 22.3 1.26 22.52 1.26 22.84C1.3 23.16 1.3 23.48 1.26 23.8C1.18 26.44 1.14 29.38 1.14 32.62V41.38C1.02 42.82 0.96 43.92 0.96 44.68C0.96 46 1.12 47.24 1.44 48.4C1.68 48.88 1.9 49.22 2.1 49.42C2.3 49.5 2.76 49.72 3.48 50.08C4.2 50.44 4.92 50.62 5.64 50.62L7.26 50.56C7.7 50.56 8.06 50.48 8.34 50.32L8.88 49.48C9.12 48.04 9.24 46.92 9.24 46.12L9.12 44.74C9.28 44.46 9.38 44.06 9.42 43.54L9.36 41.44L9.24 37.18C9.24 35.58 9.3 34.4 9.42 33.64C9.7 33.6 10.46 33.38 11.7 32.98C13.06 32.82 14 32.62 14.52 32.38C15.48 32.18 16.06 32.04 16.26 31.96C17.5 31.68 18.52 31.4 19.32 31.12C19.64 31 19.8 30.92 19.8 30.88L19.74 30.82C19.82 30.66 19.86 30.54 19.86 30.46C19.86 30.22 19.6 29.88 19.08 29.44L18.36 28.9C17.96 28.7 17.5 28.6 16.98 28.6L15.36 28.66C13.8 28.9 12.06 29.22 10.14 29.62L9.54 29.68L9.42 28.48L9.48 26.92L9.6 23.26C9.56 23.18 9.54 23.08 9.54 22.96C9.54 22.76 9.64 22.62 9.84 22.54C10.08 22.46 10.42 22.4 10.86 22.36C11.42 22.36 11.78 22.34 11.94 22.3C12.94 22.1 13.76 21.96 14.4 21.88C14.52 21.8 14.86 21.72 15.42 21.64C15.98 21.56 16.34 21.5 16.5 21.46C17.34 21.38 18.12 21.22 18.84 20.98C18.92 20.98 19.24 20.96 19.8 20.92C20.36 20.88 20.78 20.72 21.06 20.44C20.86 20.32 20.76 20.14 20.76 19.9L20.82 19.6C20.74 19.4 20.58 19.24 20.34 19.12C20.14 18.96 20.02 18.88 19.98 18.88C19.66 18.44 19.44 18.2 19.32 18.16C18.68 18 17.54 17.92 15.9 17.92C13.74 18.16 11.62 18.52 9.54 19C9.46 18.68 9.42 18.44 9.42 18.28C9.42 18.04 9.44 17.78 9.48 17.5C9.52 17.22 9.54 16.94 9.54 16.66L9.48 13.54C10.2 13.3 11.96 12.84 14.76 12.16C15 12.08 15.26 12 15.54 11.92C15.82 11.84 16.08 11.76 16.32 11.68C16.72 11.68 17.02 11.6 17.22 11.44C17.82 11.44 18.22 11.36 18.42 11.2C19.34 11.24 20.08 11.42 20.64 11.74C21 12.14 21.24 12.5 21.36 12.82C21.56 13.82 21.66 14.92 21.66 16.12L21.6 18.28C21.52 19.84 21.5 20.78 21.54 21.1L21.42 27.52C21.26 31.12 21.14 34.72 21.06 38.32C21.06 38.96 21.04 39.48 21 39.88L20.76 47.32C20.12 47.96 19.5 48.4 18.9 48.64C18.38 48.8 17.72 48.9 16.92 48.94C16.04 48.98 15.36 49.08 14.88 49.24H14.22C14.26 49.56 14.46 49.84 14.82 50.08C15.18 50.36 15.4 50.54 15.48 50.62C16.48 51.18 17.86 51.64 19.62 52C19.74 52.04 20.04 52.06 20.52 52.06C21.4 52.06 22.06 51.84 22.5 51.4L23.28 49.18C23.56 47.58 23.76 45.58 23.88 43.18V39.52L24 30.34L24.06 21.22L23.94 14.08C23.82 13.4 23.56 12.64 23.16 11.8C23.04 11.72 22.9 11.56 22.74 11.32C22.58 11.04 22.44 10.84 22.32 10.72C21.24 9.72 20.38 9.12 19.74 8.92L18.3 8.68H18.18ZM30.42 26.44C30.38 26.44 30.32 26.46 30.24 26.5C30.2 26.5 30.18 26.52 30.18 26.56H30.36L30.42 26.44ZM27.84 28.84C27.76 28.92 27.74 28.98 27.78 29.02C27.86 29.06 27.9 29.08 27.9 29.08C27.9 29.12 27.92 29.26 27.96 29.5C28.04 29.7 28.14 29.84 28.26 29.92C28.46 30.36 28.66 30.76 28.86 31.12C29.06 31.44 29.22 31.74 29.34 32.02C29.54 32.18 29.74 32.44 29.94 32.8C30.14 33.16 30.26 33.38 30.3 33.46L32.28 35.68L33.18 36.58C34.3 37.46 35.4 38.08 36.48 38.44C37 38.44 37.48 38.36 37.92 38.2C38.16 37.88 38.28 37.56 38.28 37.24C38.28 36.76 38.08 35.98 37.68 34.9C36.96 33.7 36.36 32.86 35.88 32.38C35.44 31.94 34.82 31.48 34.02 31C33.66 30.8 33.22 30.62 32.7 30.46C32.18 30.26 31.84 30.12 31.68 30.04C30.2 29.44 29.3 29.06 28.98 28.9L29.1 29.02L28.98 29.08L27.96 28.96L27.84 28.84ZM91.74 1.42C90.7 1.38 89.64 1.46 88.56 1.66C87.52 1.82 86.22 2.1 84.66 2.5L83.46 2.8C81.34 3.48 79.68 3.9 78.48 4.06C77.36 4.42 76.14 4.76 74.82 5.08L73.62 5.38H73.5C73.3 5.38 73.02 5.32 72.66 5.2C72.34 5.04 72.08 4.94 71.88 4.9L69.96 4.66C70.2 5.02 70.38 5.4 70.5 5.8C70.54 6.12 70.56 6.82 70.56 7.9C70.56 8.94 70.6 9.82 70.68 10.54C70.84 11.02 71.08 11.48 71.4 11.92C71.48 12.12 71.58 12.48 71.7 13C71.86 13.52 72 13.9 72.12 14.14C72.2 14.58 72.32 14.98 72.48 15.34C73.32 16.18 73.88 16.7 74.16 16.9C74.76 17.1 75.12 17.2 75.24 17.2H75.36C75.88 16.96 76.94 16.74 78.54 16.54C79.54 16.5 80.42 16.36 81.18 16.12C81.38 16.08 81.66 16 82.02 15.88C82.38 15.72 82.78 15.58 83.22 15.46C83.46 15.26 83.8 15.1 84.24 14.98C84.68 14.86 84.98 14.76 85.14 14.68C85.22 14.68 85.46 14.6 85.86 14.44C86.3 14.24 86.6 14.14 86.76 14.14H86.88C88.04 13.62 88.76 13.28 89.04 13.12L90.48 12.58L90.54 12.64C90.1 13.6 89.54 14.54 88.86 15.46C88.22 16.38 87.34 17.48 86.22 18.76L84.48 20.86C84.28 20.66 83.96 20.52 83.52 20.44C83.12 20.32 82.84 20.24 82.68 20.2C82.76 20.36 82.94 20.74 83.22 21.34C83.5 21.9 83.64 22.34 83.64 22.66L83.52 23.2L83.46 23.8C83.46 24.2 83.6 24.42 83.88 24.46C83.92 24.66 84.04 24.8 84.24 24.88C84.44 24.92 84.64 24.96 84.84 25C85.04 25.36 85.16 25.62 85.2 25.78C85.28 25.9 85.32 25.98 85.32 26.02L85.26 26.08C84.74 26.16 84.18 26.28 83.58 26.44C83.02 26.56 82.46 26.68 81.9 26.8L80.64 27.1C80.24 27.26 79.66 27.44 78.9 27.64C78.14 27.84 77.46 27.98 76.86 28.06C76.7 28.1 76.22 28.24 75.42 28.48C74.74 28.6 74.1 28.78 73.5 29.02C72.1 29.22 70.88 29.5 69.84 29.86C69.36 29.86 69.04 29.94 68.88 30.1C68.24 30.3 67.62 30.44 67.02 30.52C66.14 30.76 64.92 31 63.36 31.24C62.96 31.28 62.44 31.36 61.8 31.48C61.72 31.48 61.6 31.5 61.44 31.54C61.28 31.58 61.18 31.66 61.14 31.78C61.38 32.06 61.8 32.42 62.4 32.86C63 33.26 63.42 33.56 63.66 33.76C63.74 33.8 64.1 33.98 64.74 34.3C65.42 34.58 66.04 34.74 66.6 34.78H67.2C67.64 34.78 67.92 34.72 68.04 34.6L70.8 34.24C72.44 33.72 74.58 33.18 77.22 32.62C77.82 32.3 78.5 32.06 79.26 31.9L81.3 31.18C81.62 31.06 82.38 30.86 83.58 30.58C84.82 30.3 85.84 30.02 86.64 29.74C86.64 30.02 86.72 30.38 86.88 30.82C86.96 31.5 87.14 32.52 87.42 33.88C87.5 34.12 87.6 34.54 87.72 35.14C88 37.62 88.14 39.9 88.14 41.98C88.14 42.14 88.1 42.6 88.02 43.36C87.94 44.12 87.84 44.8 87.72 45.4C87.16 46.72 86.78 47.54 86.58 47.86C86.34 48.14 86.06 48.5 85.74 48.94C85.46 49.42 85.16 49.8 84.84 50.08C84.52 50.4 84.18 50.6 83.82 50.68C83.66 50.72 83.32 50.74 82.8 50.74L80.82 50.68C80.42 50.64 79.4 50.48 77.76 50.2C77 50.2 76.32 50.1 75.72 49.9C75.68 49.78 75.62 49.72 75.54 49.72C75.54 49.8 75.56 49.92 75.6 50.08C75.68 50.24 75.78 50.38 75.9 50.5C76.02 50.74 76.24 51 76.56 51.28C76.92 51.6 77.16 51.8 77.28 51.88C77.52 52.08 77.88 52.26 78.36 52.42C79.36 53.1 80.44 53.64 81.6 54.04C82.8 54.44 84 54.64 85.2 54.64C86.96 54.64 88.56 54.22 90 53.38C90.72 52.66 91.26 52.06 91.62 51.58C91.98 51.14 92.28 50.64 92.52 50.08C92.56 49.88 92.6 49.68 92.64 49.48C92.72 49.28 92.78 49.08 92.82 48.88C92.86 48.84 92.88 48.8 92.88 48.76C92.88 48.72 92.9 48.7 92.94 48.7C93.22 47.14 93.42 45.16 93.54 42.76C93.54 41.76 93.48 40.54 93.36 39.1C93.24 37.66 93.04 36.4 92.76 35.32V35.14C92.76 34.94 92.72 34.7 92.64 34.42C92.6 34.1 92.56 33.88 92.52 33.76C92.2 31.4 91.7 29.66 91.02 28.54C91.38 28.38 91.82 28.22 92.34 28.06C92.58 27.9 92.88 27.78 93.24 27.7C93.64 27.62 93.88 27.58 93.96 27.58C94.32 27.58 94.8 27.52 95.4 27.4C96.2 27.2 96.88 27.12 97.44 27.16C97.52 27.16 97.98 27.06 98.82 26.86C99.7 26.62 100.6 26.5 101.52 26.5C102 26.34 102.44 26.26 102.84 26.26C103.36 26.06 103.98 25.94 104.7 25.9C105.42 25.82 105.86 25.78 106.02 25.78C106.22 25.74 106.68 25.72 107.4 25.72C108.84 25.72 110 25.56 110.88 25.24C111 25.16 111.2 25.06 111.48 24.94C111.8 24.82 112.02 24.66 112.14 24.46C112.58 24.22 112.8 23.84 112.8 23.32L112.74 23.02C112.46 22.54 112.08 22.12 111.6 21.76C111.16 21.52 110.44 21.3 109.44 21.1L107.88 20.98C106.6 20.98 104.94 21.18 102.9 21.58C102.7 21.62 102.26 21.76 101.58 22C100.94 22.2 100.4 22.3 99.96 22.3C99.36 22.5 98.62 22.7 97.74 22.9C96.9 23.1 96.36 23.22 96.12 23.26L94.68 23.62C94.56 23.74 94.36 23.84 94.08 23.92C93.8 23.96 93.62 23.98 93.54 23.98L92.52 24.1C92.52 24.14 92.5 24.16 92.46 24.16C92.42 24.16 92.4 24.14 92.4 24.1V24.16C91.84 24.28 91.48 24.36 91.32 24.4C91.24 24.44 90.94 24.56 90.42 24.76C89.9 24.92 89.44 24.98 89.04 24.94L87.48 23.26C87.96 22.9 88.32 22.7 88.56 22.66C88.88 22.3 89.18 21.98 89.46 21.7C89.78 21.42 90.04 21.2 90.24 21.04C91.6 19.28 92.66 17.7 93.42 16.3C93.46 16.26 93.6 16.1 93.84 15.82C94.12 15.5 94.3 15.16 94.38 14.8C94.7 14.4 95.04 13.76 95.4 12.88L95.94 11.74C96.18 11.42 96.48 10.82 96.84 9.94C97 9.7 97.18 9.3 97.38 8.74C97.46 8.54 97.68 8.06 98.04 7.3C98.44 6.5 98.66 5.8 98.7 5.2C98.54 4.6 98.34 4.12 98.1 3.76C97.38 3.04 96.24 2.38 94.68 1.78C94.04 1.58 93.32 1.48 92.52 1.48L91.74 1.42ZM154.08 2.62C153.92 2.62 153.76 2.72 153.6 2.92C153.44 3.08 153.32 3.34 153.24 3.7C153.12 4.1 153 4.4 152.88 4.6C152.36 5.6 151.76 7.26 151.08 9.58C151 9.7 150.86 9.98 150.66 10.42C150.46 10.86 150.34 11.2 150.3 11.44C150.3 11.44 150.28 11.44 150.24 11.44C150.08 11.4 149.98 11.58 149.94 11.98C149.9 12.34 149.88 12.56 149.88 12.64C149.72 12.92 149.52 13.38 149.28 14.02C148.68 15.18 148.08 16.12 147.48 16.84C147.24 17.24 146.84 17.82 146.28 18.58C145.72 19.58 145.3 20.16 145.02 20.32C145.06 20.44 144.98 20.58 144.78 20.74C144.62 20.86 144.5 20.94 144.42 20.98H144.36C144.28 20.42 144.06 19.8 143.7 19.12C143.1 18.52 142.52 18.02 141.96 17.62L140.82 17.2C139.9 16.84 139.16 16.6 138.6 16.48C138.04 16.36 137.4 16.32 136.68 16.36C135.68 16.52 134.72 16.76 133.8 17.08L132.18 17.62C130.54 18.06 129.3 18.5 128.46 18.94L127.74 19.06C127.54 19.06 127.42 19.04 127.38 19C126.66 18.68 126.1 18.52 125.7 18.52C125.02 18.52 124.54 18.44 124.26 18.28C124.26 18.4 124.16 18.46 123.96 18.46L123.42 18.4H123.36C123.28 18.36 123.16 18.34 123 18.34C122.84 18.34 122.72 18.42 122.64 18.58C122.6 18.74 122.58 19.02 122.58 19.42C122.58 19.9 122.56 20.18 122.52 20.26C122.4 23.18 122.34 26.06 122.34 28.9L122.4 34.42C122.4 35.9 122.34 37.4 122.22 38.92L122.16 43.72C122.16 44.88 122.2 45.94 122.28 46.9C122.44 47.9 122.52 48.74 122.52 49.42C122.88 49.78 123.44 50.1 124.2 50.38C125.28 50.54 126.18 50.62 126.9 50.62C127.62 50.62 128.22 50.54 128.7 50.38C129.18 50.18 129.74 50.08 130.38 50.08L132 50.2C133 50.28 133.62 50.3 133.86 50.26L135.3 50.14C135.7 50.14 136.32 50.1 137.16 50.02C138.04 49.94 138.8 49.8 139.44 49.6H139.56C139.72 49.6 139.9 49.66 140.1 49.78C140.3 49.94 140.44 50.04 140.52 50.08C140.76 50.12 141.06 50.2 141.42 50.32C141.78 50.44 142.06 50.5 142.26 50.5C142.74 50.5 143.2 50.1 143.64 49.3C143.76 49.02 143.88 48.38 144 47.38V41.86C144 37.58 144.14 34.26 144.42 31.9C144.38 31.18 144.42 30.04 144.54 28.48C144.7 26.52 144.78 24.84 144.78 23.44C144.66 23 144.6 22.42 144.6 21.7C145.28 21.78 145.78 21.88 146.1 22C146.3 21.88 146.5 21.82 146.7 21.82L147.48 21.88H147.6C147.76 21.84 147.96 21.76 148.2 21.64C148.48 21.52 148.7 21.44 148.86 21.4C149.54 21 149.94 20.74 150.06 20.62L151.92 18.64L153.06 17.02C153.34 16.9 153.66 16.78 154.02 16.66C154.38 16.54 154.66 16.48 154.86 16.48C157.86 15.28 160.32 14.56 162.24 14.32C162.72 14.16 163.22 14.08 163.74 14.08C164.1 13.92 164.52 13.84 165 13.84L166.5 13.9C166.98 14.06 167.34 14.36 167.58 14.8C167.74 15.4 167.9 16.6 168.06 18.4L168.12 20.14L168.24 23.62C168.24 25.66 168.2 27 168.12 27.64C168 29.84 167.94 32.06 167.94 34.3L167.82 38.8L167.58 40.84C167.34 42.32 167.22 43.46 167.22 44.26C167.18 44.34 167.08 44.96 166.92 46.12C166.76 47.28 166.18 48.06 165.18 48.46C164.9 48.62 164.16 48.84 162.96 49.12C162.12 49.16 160.76 49.04 158.88 48.76C158.44 48.68 157.82 48.58 157.02 48.46C156.7 48.26 156.5 48.16 156.42 48.16H156.3C156.58 48.68 157.18 49.4 158.1 50.32C158.62 50.84 159.32 51.36 160.2 51.88C161.36 52.44 162.3 52.82 163.02 53.02C163.78 53.26 164.52 53.36 165.24 53.32C165.68 53.32 165.96 53.3 166.08 53.26C166.32 53.22 166.58 53.14 166.86 53.02C167.18 52.9 167.36 52.84 167.4 52.84C167.72 52.8 168.08 52.58 168.48 52.18C168.72 52.06 169.04 51.84 169.44 51.52C169.8 51.04 170.06 50.56 170.22 50.08C170.38 49.6 170.52 49.04 170.64 48.4C170.8 47.8 170.9 47.38 170.94 47.14C171.5 42.78 171.78 37.84 171.78 32.32L171.66 24.7C171.3 22.98 171.1 21.38 171.06 19.9L170.82 16.84C170.5 15.4 170.08 14.36 169.56 13.72C169.44 13.4 169.18 13.04 168.78 12.64L167.7 11.86L167.76 11.74C167.76 11.66 167.64 11.6 167.4 11.56C167.2 11.52 167.08 11.46 167.04 11.38C166.48 11.06 166.12 10.82 165.96 10.66C165.76 10.66 165.48 10.58 165.12 10.42C164.4 10.34 163.54 10.3 162.54 10.3C161.06 10.42 160 10.54 159.36 10.66L155.52 11.56C155.52 11.4 155.74 11.02 156.18 10.42L156.66 9.52C157.3 8.24 157.64 7.12 157.68 6.16C157.56 5.72 157.28 5.28 156.84 4.84C156.4 4.4 156.16 4.16 156.12 4.12C155.6 3.48 155.18 3.08 154.86 2.92L154.56 2.74L154.08 2.62ZM133.08 4.84C132.92 4.88 132.82 5.02 132.78 5.26C132.74 5.5 132.72 5.64 132.72 5.68C132.6 6.16 132.22 6.86 131.58 7.78L130.56 9.28C130.16 9.64 129.66 10.34 129.06 11.38C128.7 12.02 128.44 12.44 128.28 12.64C128.2 12.92 128 13.22 127.68 13.54C127.4 13.86 127.22 14.06 127.14 14.14C127.02 14.46 126.82 14.82 126.54 15.22C126.26 15.62 126.08 15.9 126 16.06L125.16 16.96C125.4 17.04 125.68 17.08 126 17.08H126.48C127.32 17.2 127.86 17.26 128.1 17.26C129.62 16.82 131.14 15.88 132.66 14.44C132.86 14.28 133.14 14.06 133.5 13.78C133.9 13.5 134.14 13.26 134.22 13.06C134.62 12.7 134.96 12.18 135.24 11.5C135.52 10.82 135.68 10.42 135.72 10.3C135.76 10.18 135.78 9.96 135.78 9.64C135.78 9.24 135.72 8.66 135.6 7.9C135.2 7.58 134.94 7.28 134.82 7L133.26 4.84H133.08ZM139.5 18.52C139.54 18.52 139.72 18.56 140.04 18.64C140.36 18.68 140.58 18.8 140.7 19C140.9 19.28 141.02 19.64 141.06 20.08C141.1 20.52 141.12 20.8 141.12 20.92V23.26L141 29.38C140.96 29.58 140.86 29.68 140.7 29.68C140.58 29.68 140.38 29.62 140.1 29.5C139.86 29.38 139.7 29.3 139.62 29.26C139.5 29.22 139.28 29.2 138.96 29.2H138.6C138.52 29.16 138.4 29.14 138.24 29.14C138 29.14 137.78 29.18 137.58 29.26C137.38 29.3 137.2 29.32 137.04 29.32L135.84 29.5C135.48 29.62 135 29.76 134.4 29.92C133.8 30.04 133.24 30.12 132.72 30.16C132.36 30.36 131.9 30.5 131.34 30.58C130.78 30.62 130.46 30.64 130.38 30.64C129.98 29.96 129.78 28.9 129.78 27.46L129.9 25.06C129.98 24.02 130.02 23.34 130.02 23.02L129.96 22L129.78 21.04C130.34 20.96 131.48 20.64 133.2 20.08L135.36 19.36C136.16 19.08 136.64 18.92 136.8 18.88C137.4 18.76 137.82 18.66 138.06 18.58L139.32 18.52H139.5ZM148.86 24.64C148.94 24.76 149 24.96 149.04 25.24C149.12 25.52 149.2 25.72 149.28 25.84C149.32 25.92 149.58 26.28 150.06 26.92C150.1 27 150.24 27.24 150.48 27.64C150.76 28.04 150.94 28.34 151.02 28.54C151.34 28.86 151.78 29.4 152.34 30.16L153.54 31.78C153.86 32.34 154.4 33 155.16 33.76C155.92 34.52 156.62 35.18 157.26 35.74C157.98 36.14 158.34 36.34 158.34 36.34C158.94 36.34 159.5 36.04 160.02 35.44C160.14 35 160.2 34.5 160.2 33.94L160.14 32.62L160.02 31.24C159.5 29.64 158.16 28.1 156 26.62C154.52 25.82 153.32 25.4 152.4 25.36C151.92 25.2 151.42 25.06 150.9 24.94L150.12 24.7L149.76 24.64H148.86ZM140.82 31.9C140.74 33.74 140.6 35.78 140.4 38.02C140.44 38.94 140.4 39.88 140.28 40.84C140.16 41.8 140.1 42.36 140.1 42.52L139.92 44.02V44.38C139.92 44.74 139.88 45.02 139.8 45.22V46.72C139 46.56 137.98 46.48 136.74 46.48C135.42 46.48 134.1 46.6 132.78 46.84C131.82 46.96 131.12 47.02 130.68 47.02C130.28 47.02 130.02 47 129.9 46.96C129.78 46.72 129.72 46.48 129.72 46.24L129.78 45.28C129.62 44.44 129.54 43.38 129.54 42.1C129.54 41.22 129.56 40.64 129.6 40.36C129.6 40.2 129.6 39.88 129.6 39.4C129.64 38.92 129.64 38.4 129.6 37.84C129.72 37.08 129.78 36.26 129.78 35.38C129.9 35.06 129.96 34.48 129.96 33.64C130.72 33.68 131.5 33.64 132.3 33.52C133.14 33.36 133.62 33.28 133.74 33.28C134.02 33.28 134.52 33.18 135.24 32.98C136.32 32.9 137.46 32.68 138.66 32.32C139.54 32.04 140.2 31.9 140.64 31.9H140.82ZM373.549 5.2C372.789 5.2 372.229 5.28 371.869 5.44C371.269 5.6 370.649 5.74 370.009 5.86C369.369 5.98 368.829 6.06 368.389 6.1C369.069 7.26 369.469 7.96 369.589 8.2C369.549 8.24 369.529 8.28 369.529 8.32C369.529 8.36 369.529 8.4 369.529 8.44C369.569 8.44 369.589 8.42 369.589 8.38C369.789 8.42 369.969 8.56 370.129 8.8C370.329 9.04 370.449 9.24 370.489 9.4C371.409 10.36 372.009 10.96 372.289 11.2C372.889 11.56 373.309 11.74 373.549 11.74H373.669C374.069 11.9 374.529 12.02 375.049 12.1C375.569 12.14 375.869 12.18 375.949 12.22C376.669 12.22 377.309 12.12 377.869 11.92C377.989 11.8 378.289 11.66 378.769 11.5C379.089 11.3 379.249 10.92 379.249 10.36C379.249 10.12 379.209 9.8 379.129 9.4C379.089 9 379.089 8.72 379.129 8.56C379.049 8.32 378.969 8.12 378.889 7.96C378.849 7.76 378.809 7.62 378.769 7.54C378.409 6.98 377.909 6.54 377.269 6.22C376.629 5.86 376.269 5.66 376.189 5.62C375.229 5.34 374.469 5.2 373.909 5.2H373.549ZM401.509 6.22C401.069 6.18 400.469 6.22 399.709 6.34C398.949 6.46 398.409 6.54 398.089 6.58C396.489 6.62 394.869 6.8 393.229 7.12C391.749 7.4 389.669 7.92 386.989 8.68C386.589 8.68 386.129 8.76 385.609 8.92L384.709 8.98C384.629 8.9 384.529 8.86 384.409 8.86C384.329 8.86 384.289 8.92 384.289 9.04C384.289 9.4 384.469 9.9 384.829 10.54L386.329 12.82L387.229 14.2C387.349 14.24 387.609 14.26 388.009 14.26C388.409 14.26 388.929 14.22 389.569 14.14C390.209 14.02 390.689 13.94 391.009 13.9C391.169 13.82 391.409 13.76 391.729 13.72C392.049 13.64 392.249 13.6 392.329 13.6C392.969 13.32 393.529 13.14 394.009 13.06C394.849 12.94 395.389 12.88 395.629 12.88C396.869 12.52 398.149 12.28 399.469 12.16C400.829 12 402.549 11.9 404.629 11.86C405.189 11.9 405.749 12.02 406.309 12.22C406.429 13.18 406.489 13.64 406.489 13.6C406.449 14.48 406.289 15.56 406.009 16.84L405.469 18.94L405.169 20.62C403.449 20.78 400.629 21.34 396.709 22.3C395.309 22.5 394.489 22.64 394.249 22.72C392.649 23 391.429 23.18 390.589 23.26C390.109 23.38 389.769 23.44 389.569 23.44C388.769 23.72 387.509 23.98 385.789 24.22C386.149 24.9 386.849 25.72 387.889 26.68C388.009 26.76 388.189 26.84 388.429 26.92C388.669 27 388.829 27.08 388.909 27.16V27.34C388.909 27.62 388.849 27.94 388.729 28.3C388.649 28.66 388.609 28.88 388.609 28.96C388.089 30.76 387.429 33.46 386.629 37.06L385.489 41.86C385.369 42.7 385.309 43.56 385.309 44.44C385.309 44.56 385.329 44.9 385.369 45.46C385.449 45.98 385.569 46.42 385.729 46.78C386.369 48.22 387.009 49.34 387.649 50.14C388.289 50.94 389.069 51.56 389.989 52C390.589 52.16 390.989 52.34 391.189 52.54H391.249L391.189 52.48L391.249 52.42C391.689 52.7 392.529 52.92 393.769 53.08C396.449 53.2 399.069 53.26 401.629 53.26C404.509 53.26 406.369 53.24 407.209 53.2C407.569 53.2 408.109 53.12 408.829 52.96C409.589 52.84 410.249 52.64 410.809 52.36C411.209 52.32 411.609 52.16 412.009 51.88C412.449 51.64 412.689 51.5 412.729 51.46C413.369 50.58 413.749 49.88 413.869 49.36C413.949 49.04 414.049 48.46 414.169 47.62C414.089 47.26 413.969 46.94 413.809 46.66C413.969 45.86 414.229 45.14 414.589 44.5C414.669 44.1 414.709 43.62 414.709 43.06C413.669 44.58 412.409 45.64 410.929 46.24C410.769 46.28 410.389 46.4 409.789 46.6C409.229 46.84 408.849 46.96 408.649 46.96C408.329 47 407.949 47.08 407.509 47.2C407.069 47.32 406.789 47.4 406.669 47.44C404.469 47.88 401.809 48.1 398.689 48.1L392.269 48.04C392.189 48.04 391.849 48 391.249 47.92C390.649 47.84 390.109 47.72 389.629 47.56C389.589 47.56 389.429 47.48 389.149 47.32C388.909 47.16 388.729 46.94 388.609 46.66L388.489 45.58C388.489 44.22 388.769 42.36 389.329 40C389.609 38.48 389.769 37.56 389.809 37.24C389.929 36.56 390.069 36.1 390.229 35.86V35.5C390.229 35.1 390.289 34.84 390.409 34.72C390.409 34.52 390.449 34.22 390.529 33.82C390.649 33.38 390.729 33.02 390.769 32.74C390.929 32.42 391.009 32.1 391.009 31.78L391.309 30.4C391.629 28.88 391.809 27.74 391.849 26.98C392.449 26.7 393.369 26.48 394.609 26.32C394.609 26.32 395.089 26.24 396.049 26.08C396.729 25.96 397.189 25.92 397.429 25.96C399.109 25.76 400.229 25.58 400.789 25.42H401.089H401.449C401.929 25.42 402.249 25.32 402.409 25.12C402.809 25.04 403.489 24.94 404.449 24.82L405.769 24.64C406.489 24.44 407.169 24.16 407.809 23.8C407.889 23.72 407.989 23.64 408.109 23.56C408.269 23.44 408.369 23.34 408.409 23.26C408.409 23.14 408.269 22.9 407.989 22.54C407.749 22.14 407.629 21.86 407.629 21.7C407.989 21.06 408.249 20.38 408.409 19.66C408.609 19.3 408.769 18.84 408.889 18.28C409.009 17.72 409.109 17.34 409.189 17.14C409.389 16.9 409.489 16.5 409.489 15.94L409.609 13.9C409.609 13.42 409.589 13.12 409.549 13C409.429 12.2 409.269 11.56 409.069 11.08C408.989 10.88 408.849 10.66 408.649 10.42C408.489 10.14 408.289 9.88 408.049 9.64C407.929 9.36 407.689 9.04 407.329 8.68C407.009 8.32 406.749 8.06 406.549 7.9C405.069 7.02 403.929 6.5 403.129 6.34L402.169 6.28L401.509 6.22ZM374.989 15.16C373.109 15.4 370.809 16.12 368.089 17.32C365.449 18.72 362.869 19.86 360.349 20.74C360.229 20.9 360.169 21.26 360.169 21.82C360.169 22.02 360.189 22.32 360.229 22.72C360.269 23.08 360.269 23.34 360.229 23.5C360.509 23.94 360.909 24.5 361.429 25.18C361.949 25.82 362.429 26.34 362.869 26.74C363.229 26.98 363.589 27.14 363.949 27.22H364.369C365.049 27.22 365.529 27.16 365.809 27.04C368.369 26.6 370.389 25.78 371.869 24.58H371.929C372.049 24.58 372.189 24.5 372.349 24.34C372.509 24.18 372.629 24.08 372.709 24.04L374.149 22.72C374.269 23.12 374.169 23.9 373.849 25.06L373.549 26.56C373.429 27.52 373.249 28.46 373.009 29.38C373.089 30.1 372.969 31.06 372.649 32.26L372.409 33.7C372.089 35.3 371.849 36.94 371.689 38.62L371.449 40.42C371.209 41.38 371.089 42.58 371.089 44.02V47.2C371.169 48.08 371.469 49.08 371.989 50.2C372.029 50.24 372.209 50.44 372.529 50.8C372.849 51.16 373.209 51.42 373.609 51.58H373.909C374.189 51.58 374.369 51.62 374.449 51.7C374.569 51.66 374.789 51.58 375.109 51.46C375.469 51.34 375.769 51.26 376.009 51.22C376.209 50.98 376.529 50.72 376.969 50.44C377.449 50.2 377.749 50.04 377.869 49.96C377.949 49.88 378.149 49.72 378.469 49.48C378.829 49.24 379.069 49.02 379.189 48.82C379.589 48.62 379.949 48.3 380.269 47.86C380.629 47.42 380.829 47.1 380.869 46.9C380.949 46.7 381.029 46.5 381.109 46.3C381.189 46.1 381.289 45.92 381.409 45.76L381.769 44.92C381.889 44.36 381.949 43.92 381.949 43.6V43.12C381.589 43.52 380.869 44.24 379.789 45.28C378.709 45.96 377.609 46.56 376.489 47.08L374.389 47.92C374.109 47.68 373.969 47.3 373.969 46.78C373.969 46.54 374.009 46.14 374.089 45.58C374.209 44.98 374.249 44.58 374.209 44.38C374.369 44.02 374.449 43.54 374.449 42.94V41.8C374.489 41.52 374.589 41.06 374.749 40.42C374.909 39.74 374.969 39.18 374.929 38.74C375.089 37.7 375.249 36.92 375.409 36.4L375.529 34.96C375.529 34 375.629 33.16 375.829 32.44C375.829 32 375.929 31.42 376.129 30.7C376.329 29.5 376.409 28.78 376.369 28.54C376.569 27.82 376.669 27.4 376.669 27.28C376.669 27.08 376.649 26.96 376.609 26.92C376.649 26.76 376.749 26.46 376.909 26.02C377.109 25.58 377.209 25.26 377.209 25.06C377.609 23.94 377.829 23.22 377.869 22.9C378.229 21.98 378.529 20.96 378.769 19.84V19.3C378.769 18.46 378.689 17.92 378.529 17.68C378.489 17.4 378.369 17.14 378.169 16.9C377.969 16.62 377.849 16.46 377.809 16.42L375.709 15.22L375.229 15.16H374.989ZM446.389 0.819999C445.949 0.859998 445.729 1.08 445.729 1.48V2.44C445.809 3.04 445.989 3.84 446.269 4.84C446.309 5 446.369 5.34 446.449 5.86C446.569 6.38 446.609 6.8 446.569 7.12C446.169 7.24 445.729 7.34 445.249 7.42C444.769 7.46 444.469 7.48 444.349 7.48C443.069 7.68 442.129 7.86 441.529 8.02C440.369 8.18 438.929 8.44 437.209 8.8C436.889 8.76 436.469 8.8 435.949 8.92C435.469 9.04 435.129 9.12 434.929 9.16C434.369 9.16 433.629 9.24 432.709 9.4C431.869 9.56 431.129 9.64 430.489 9.64L429.109 9.94C428.949 9.86 428.829 9.82 428.749 9.82C428.589 9.82 428.349 9.88 428.029 10C427.749 10.12 427.549 10.18 427.429 10.18C426.949 10.34 426.549 10.42 426.229 10.42C425.829 10.54 425.549 10.68 425.389 10.84C425.709 11.28 426.249 11.76 427.009 12.28C427.529 12.56 427.909 12.82 428.149 13.06C428.949 13.5 429.849 13.84 430.849 14.08C431.889 14.32 432.469 14.46 432.589 14.5C432.949 14.5 433.289 14.48 433.609 14.44C433.929 14.4 434.229 14.38 434.509 14.38C434.589 14.46 434.629 14.56 434.629 14.68C434.629 14.84 434.549 15.06 434.389 15.34C434.269 15.58 434.169 15.78 434.089 15.94C434.089 16.26 434.049 16.56 433.969 16.84C433.929 17.12 433.909 17.32 433.909 17.44C433.749 18.64 433.669 19.18 433.669 19.06C433.429 20.3 433.309 21.36 433.309 22.24C433.309 23.12 433.409 24.06 433.609 25.06C433.729 25.3 433.849 25.58 433.969 25.9C434.169 26.22 434.449 26.56 434.809 26.92C435.169 27.28 435.389 27.52 435.469 27.64C435.749 27.8 436.089 27.88 436.489 27.88C436.649 27.88 437.009 27.84 437.569 27.76L437.749 27.7H437.809C437.809 27.82 437.569 27.96 437.089 28.12L437.029 28.18H437.149C437.349 28.18 437.569 28.12 437.809 28C438.049 27.88 438.229 27.8 438.349 27.76H438.829C439.109 27.76 439.289 27.72 439.369 27.64C439.489 27.56 439.549 27.58 439.549 27.7C439.029 27.82 438.149 28.12 436.909 28.6C436.629 28.6 436.489 28.62 436.489 28.66C436.209 28.86 435.769 29 435.169 29.08C434.609 29.16 434.209 29.24 433.969 29.32C433.409 29.32 432.989 29.38 432.709 29.5L432.169 29.44C432.129 29.44 431.989 29.48 431.749 29.56C431.749 29.76 431.909 30 432.229 30.28C432.589 30.56 432.809 30.72 432.889 30.76C433.209 31.08 433.669 31.36 434.269 31.6C434.909 31.8 435.309 31.94 435.469 32.02C435.949 32.14 436.469 32.2 437.029 32.2C437.869 32.08 438.649 31.9 439.369 31.66C440.529 31.58 441.309 31.5 441.709 31.42C444.109 30.34 446.309 29.54 448.309 29.02L448.429 30.28C448.429 30.56 448.409 30.74 448.369 30.82L447.289 31.18C447.049 31.18 446.669 31.26 446.149 31.42C445.669 31.58 445.369 31.66 445.249 31.66C444.969 31.7 444.569 31.78 444.049 31.9C443.569 32.02 443.209 32.1 442.969 32.14L440.509 32.68C438.869 33.04 437.609 33.38 436.729 33.7L433.369 34.6C432.529 34.88 431.369 35.18 429.889 35.5C428.689 35.9 427.749 36.12 427.069 36.16C426.869 36.16 426.329 36.12 425.449 36.04C425.609 36.2 425.749 36.46 425.869 36.82C426.029 37.18 426.149 37.4 426.229 37.48C426.589 37.84 427.129 38.16 427.849 38.44C428.609 38.68 429.109 38.84 429.349 38.92L431.149 39.28C431.349 39.32 431.849 39.34 432.649 39.34H433.309L435.169 38.8C435.569 38.68 435.869 38.54 436.069 38.38C436.429 38.34 436.849 38.2 437.329 37.96C437.849 37.68 438.169 37.5 438.289 37.42L442.549 35.86L443.869 35.44C445.869 34.84 447.369 34.42 448.369 34.18C448.489 34.42 448.549 34.66 448.549 34.9L448.489 35.74C448.209 35.78 447.929 35.84 447.649 35.92C447.369 35.96 447.149 36 446.989 36.04C446.349 36.24 445.789 36.38 445.309 36.46C443.269 37.14 441.869 37.54 441.109 37.66C440.949 37.7 440.509 37.88 439.789 38.2C439.109 38.52 438.469 38.74 437.869 38.86L437.689 38.8C437.449 38.8 437.129 38.9 436.729 39.1C436.329 39.26 436.089 39.36 436.009 39.4C436.129 39.88 436.549 40.46 437.269 41.14C437.629 41.34 438.109 41.52 438.709 41.68C439.389 41.84 440.289 41.92 441.409 41.92C442.769 41.92 443.989 41.78 445.069 41.5C446.389 41.5 447.549 41.38 448.549 41.14L448.429 46.3C448.389 46.46 448.329 46.9 448.249 47.62C448.209 48.34 448.129 48.98 448.009 49.54C447.889 49.74 447.709 49.94 447.469 50.14C447.229 50.34 447.049 50.46 446.929 50.5C446.529 50.66 446.129 50.72 445.729 50.68L445.009 50.62C443.689 50.5 442.269 50.24 440.749 49.84C440.789 50.28 440.969 50.7 441.289 51.1C441.609 51.54 441.789 51.78 441.829 51.82C441.949 51.94 442.229 52.26 442.669 52.78C443.109 53.3 443.549 53.62 443.989 53.74C444.509 54.06 445.109 54.34 445.789 54.58L447.889 55V55.06L448.309 55.18L449.029 55.12C449.389 55.08 450.089 54.9 451.129 54.58C451.609 54.22 451.909 53.98 452.029 53.86C452.229 53.5 452.369 53.04 452.449 52.48C452.569 51.96 452.669 51.38 452.749 50.74C452.829 50.5 452.869 50.14 452.869 49.66V49C453.029 48.32 453.109 47.24 453.109 45.76C453.189 44.56 453.229 43.68 453.229 43.12V39.88C453.669 39.68 454.089 39.54 454.489 39.46C454.809 39.26 455.069 39.16 455.269 39.16C455.509 39.16 455.869 39.26 456.349 39.46C456.429 39.5 456.609 39.56 456.889 39.64C457.169 39.72 457.389 39.76 457.549 39.76C458.029 39.76 458.489 39.66 458.929 39.46C459.409 39.22 459.689 39.08 459.769 39.04C460.009 38.92 460.369 38.56 460.849 37.96C461.649 36.44 462.089 35.16 462.169 34.12C462.249 33.96 462.329 33.54 462.409 32.86L462.589 31.66C463.229 31.58 463.929 31.54 464.689 31.54C465.409 31.54 465.869 31.56 466.069 31.6C466.229 31.6 466.489 31.62 466.849 31.66C467.249 31.66 467.669 31.64 468.109 31.6C468.189 31.56 468.389 31.48 468.709 31.36C469.069 31.2 469.309 31 469.429 30.76C469.469 30.72 469.489 30.66 469.489 30.58C469.489 30.42 469.389 30.22 469.189 29.98C469.029 29.7 468.929 29.52 468.889 29.44C468.409 29.08 467.829 28.8 467.149 28.6C466.469 28.4 466.069 28.28 465.949 28.24H462.409C462.409 28.12 462.309 27.84 462.109 27.4C461.949 26.92 461.849 26.62 461.809 26.5C461.569 26.1 461.349 25.8 461.149 25.6C461.109 25.52 460.989 25.3 460.789 24.94C460.589 24.54 460.349 24.22 460.069 23.98C459.669 23.7 459.189 23.46 458.629 23.26C458.069 23.06 457.729 22.94 457.609 22.9C457.489 22.86 457.149 22.84 456.589 22.84L454.669 22.96C454.029 23.08 453.349 23.14 452.629 23.14L452.509 21.1C452.669 21.1 453.009 21.1 453.529 21.1C454.049 21.06 454.429 20.96 454.669 20.8C454.949 20.76 455.309 20.68 455.749 20.56C456.189 20.44 456.509 20.36 456.709 20.32C457.069 20.32 457.469 20.72 457.909 21.52L458.869 21.82C458.989 21.7 459.349 21.36 459.949 20.8C460.549 20.24 460.989 19.66 461.269 19.06C461.309 18.9 461.369 18.52 461.449 17.92C461.569 17.28 461.629 16.7 461.629 16.18C461.629 15.9 461.589 15.48 461.509 14.92C461.349 14.64 461.109 14.36 460.789 14.08C460.469 13.76 460.289 13.58 460.249 13.54C459.529 13.06 458.909 12.74 458.389 12.58C458.109 12.22 457.709 12 457.189 11.92C456.669 11.84 456.389 11.8 456.349 11.8L452.029 11.86L452.089 10.42L453.949 10.12C454.269 10.08 454.589 10.02 454.909 9.94C455.229 9.86 455.529 9.82 455.809 9.82C456.409 9.66 457.189 9.56 458.149 9.52C458.989 9.36 459.709 9.28 460.309 9.28L461.569 9.1C461.769 9.1 461.909 9.12 461.989 9.16L463.429 9.22L465.949 9.34L467.209 9.28C467.809 9.08 468.109 8.62 468.109 7.9V7.6C467.949 6.92 467.509 6.24 466.789 5.56C465.429 4.8 464.129 4.36 462.889 4.24C462.849 4.52 462.549 4.66 461.989 4.66L460.729 4.6L460.309 4.66C460.429 4.42 460.329 4.32 460.009 4.36C459.689 4.4 459.029 4.54 458.029 4.78C457.429 5.02 456.789 5.18 456.109 5.26L454.909 5.56C454.149 5.76 453.089 5.98 451.729 6.22C451.489 4.58 450.689 3.14 449.329 1.9C448.489 1.34 447.569 0.979999 446.569 0.819999H446.389ZM446.989 11.32C447.149 11.48 447.229 11.68 447.229 11.92L447.169 12.88V13C446.049 13.48 445.409 13.76 445.249 13.84L442.969 14.68C442.609 14.32 441.829 14.06 440.629 13.9C439.989 13.9 439.309 13.74 438.589 13.42V13.36L440.869 12.82C443.429 12.18 445.109 11.8 445.909 11.68L446.869 11.38L446.989 11.32ZM456.349 14.32C456.869 14.36 457.249 14.5 457.489 14.74C457.609 14.86 457.669 15.06 457.669 15.34L457.609 16C457.529 16.64 457.369 17.4 457.129 18.28H456.709C456.149 18.28 455.689 18.3 455.329 18.34L453.469 18.46L452.989 18.58L452.269 18.52C452.149 17.36 452.089 16.04 452.089 14.56C453.449 14.56 454.509 14.54 455.269 14.5L456.289 14.26L456.349 14.32ZM447.169 16.78C447.209 17.02 447.269 17.38 447.349 17.86C447.469 18.34 447.529 18.68 447.529 18.88C447.529 19.12 447.509 19.28 447.469 19.36L442.849 20.92C443.049 20.72 443.269 20.36 443.509 19.84C443.509 19.76 443.529 19.56 443.569 19.24C443.649 18.92 443.749 18.7 443.869 18.58C444.509 18.06 445.049 17.74 445.489 17.62C446.369 17.1 446.929 16.8 447.169 16.72V16.78ZM447.829 23.02C447.949 23.78 448.009 24.32 448.009 24.64L446.629 25.18L445.129 25.72L442.249 26.74L442.189 26.68C442.389 26.36 442.489 25.72 442.489 24.76C443.049 24.64 443.449 24.5 443.689 24.34C444.209 24.3 444.769 24.14 445.369 23.86C446.049 23.66 446.829 23.38 447.709 23.02H447.829ZM456.409 26.38C456.649 26.38 456.849 26.54 457.009 26.86C457.169 27.14 457.269 27.32 457.309 27.4C457.509 27.92 457.609 28.46 457.609 29.02L455.209 29.5C454.689 29.62 454.009 29.74 453.169 29.86C452.929 29.78 452.809 29.64 452.809 29.44L452.869 28.9V28.66L452.989 27.04C454.629 26.64 455.709 26.42 456.229 26.38H456.409ZM456.529 35.74C455.889 35.5 454.749 35.28 453.109 35.08L452.989 34.36L453.049 33.34C453.289 33.1 453.549 32.96 453.829 32.92C454.109 32.84 454.609 32.78 455.329 32.74C455.729 32.74 456.109 32.72 456.469 32.68L457.309 32.44L457.369 32.32L456.529 35.74ZM507.349 0.939997C507.109 1.06 506.949 1.22 506.869 1.42C506.789 1.62 506.689 1.94 506.569 2.38C506.289 5.22 506.149 7.84 506.149 10.24L499.969 11.26C499.809 11.3 499.469 11.4 498.949 11.56C498.469 11.68 498.049 11.72 497.689 11.68C496.809 11.88 496.009 12.02 495.289 12.1L493.729 12.46C492.969 12.66 491.649 12.94 489.769 13.3C489.209 13.5 488.389 13.62 487.309 13.66L485.869 13.78C485.789 13.74 485.629 13.72 485.389 13.72C485.029 13.72 484.729 13.9 484.489 14.26C484.449 14.22 484.389 14.2 484.309 14.2C484.189 14.2 484.109 14.34 484.069 14.62C484.069 14.9 484.049 15.12 484.009 15.28C483.969 15.52 484.029 15.98 484.189 16.66C484.389 17.34 484.489 17.74 484.489 17.86C484.489 18.1 484.449 18.3 484.369 18.46C484.569 18.7 484.669 19.06 484.669 19.54C485.229 20.94 485.489 21.62 485.449 21.58C485.889 23.06 486.489 24.12 487.249 24.76C487.609 24.76 488.049 24.88 488.569 25.12C489.569 25.28 490.429 25.36 491.149 25.36C492.389 25.28 493.569 25.1 494.689 24.82C496.449 24.7 498.069 24.28 499.549 23.56C500.709 23.2 501.409 22.98 501.649 22.9L503.149 22.36C503.109 22.56 502.849 23.1 502.369 23.98C502.289 24.06 502.229 24.08 502.189 24.04C502.269 24.12 502.309 24.22 502.309 24.34C502.309 24.5 502.229 24.7 502.069 24.94C501.909 25.18 501.789 25.38 501.709 25.54C499.269 30.62 497.049 34.64 495.049 37.6C494.809 37.84 494.549 38.18 494.269 38.62C493.989 38.78 493.789 39.06 493.669 39.46L492.769 40.72C492.089 41.72 491.349 42.62 490.549 43.42C489.309 44.54 488.409 45.26 487.849 45.58C487.129 46.3 486.189 47.02 485.029 47.74C485.229 47.94 485.489 48.06 485.809 48.1C486.129 48.18 486.329 48.22 486.409 48.22C486.969 48.3 487.809 48.18 488.929 47.86C489.009 47.82 489.189 47.76 489.469 47.68C489.749 47.6 490.009 47.54 490.249 47.5C490.369 47.42 490.669 47.26 491.149 47.02C491.629 46.78 492.029 46.54 492.349 46.3C492.789 46.1 493.329 45.68 493.969 45.04C494.609 44.56 495.069 44.3 495.349 44.26L496.489 43.36C497.089 42.88 497.569 42.46 497.929 42.1C498.009 42.1 498.709 42.3 500.029 42.7C500.149 42.74 500.469 42.76 500.989 42.76C501.549 42.76 502.269 42.66 503.149 42.46L504.829 42.22C505.149 42.42 505.309 42.88 505.309 43.6L505.189 45.52C505.069 46.2 505.009 46.84 505.009 47.44V49.6C505.009 50.68 505.109 51.82 505.309 53.02C505.349 53.06 505.489 53.34 505.729 53.86C505.969 54.38 506.329 54.68 506.809 54.76C507.009 54.8 507.309 54.84 507.709 54.88C508.149 54.96 508.489 55 508.729 55C509.009 54.88 509.189 54.66 509.269 54.34C509.389 54.06 509.469 53.72 509.509 53.32C509.549 52.96 509.589 52.66 509.629 52.42C509.789 51.94 509.869 51.32 509.869 50.56C509.869 49.92 509.809 49.26 509.689 48.58L509.569 47.02L509.629 41.74C510.669 41.66 511.709 41.46 512.749 41.14C513.829 40.78 514.449 40.58 514.609 40.54C515.009 40.3 515.669 40.08 516.589 39.88C517.589 39.64 518.309 39.38 518.749 39.1C518.909 38.94 518.989 38.76 518.989 38.56C518.989 38.12 518.649 37.56 517.969 36.88C517.849 36.72 517.649 36.6 517.369 36.52C517.129 36.44 516.989 36.4 516.949 36.4C516.669 36.24 516.189 36.16 515.509 36.16C515.349 36.16 515.189 36.18 515.029 36.22C514.909 36.26 514.789 36.28 514.669 36.28C514.469 36.28 514.329 36.24 514.249 36.16L514.309 36.22C514.069 36.46 513.649 36.6 513.049 36.64C512.449 36.68 512.089 36.7 511.969 36.7L509.629 37.42C509.589 36.86 509.569 36.34 509.569 35.86C509.609 35.34 509.629 35 509.629 34.84C509.669 34.56 509.689 33.98 509.689 33.1C509.689 32.34 509.649 31.68 509.569 31.12V25.06C509.569 25.02 509.569 25 509.569 25C509.609 24.96 509.629 24.94 509.629 24.94C509.749 24.94 509.889 25.12 510.049 25.48C511.689 27.6 512.669 28.82 512.989 29.14C514.269 30.98 515.509 32.44 516.709 33.52C517.909 34.92 519.529 36.52 521.569 38.32L523.489 40.12C523.569 40.44 523.769 40.68 524.089 40.84C524.409 40.96 524.669 41.12 524.869 41.32C525.029 41.4 525.509 41.72 526.309 42.28C527.109 42.8 527.889 43.14 528.649 43.3C528.849 43.34 529.069 43.22 529.309 42.94C529.549 42.62 529.709 42.42 529.789 42.34L530.509 41.14C530.549 41.06 530.589 40.92 530.629 40.72C530.709 40.52 530.749 40.36 530.749 40.24C530.749 40.12 530.729 40.04 530.689 40C530.809 39.8 530.869 39.54 530.869 39.22C530.869 39.02 530.849 38.76 530.809 38.44C530.769 38.12 530.769 37.9 530.809 37.78C530.769 37.34 530.609 36.92 530.329 36.52C530.089 36.08 529.709 35.6 529.189 35.08C528.709 34.64 528.349 34.28 528.109 34C527.589 33.64 527.029 33.18 526.429 32.62L524.029 31.06C521.629 29.42 520.029 28.38 519.229 27.94C519.029 27.9 518.789 27.8 518.509 27.64C518.229 27.48 517.989 27.3 517.789 27.1C517.549 27.06 517.309 26.94 517.069 26.74C516.829 26.54 516.689 26.42 516.649 26.38C515.689 25.9 514.809 25.32 514.009 24.64C513.889 24.6 513.729 24.52 513.529 24.4C513.329 24.24 513.189 24.1 513.109 23.98C512.309 23.54 511.409 22.94 510.409 22.18C510.169 22.14 509.949 22 509.749 21.76C509.589 21.52 509.509 21.26 509.509 20.98C509.509 20.54 509.709 20.3 510.109 20.26C510.189 20.26 510.429 20.24 510.829 20.2C511.229 20.12 511.549 20 511.789 19.84C511.909 19.8 512.489 19.66 513.529 19.42C514.769 19.18 515.809 18.86 516.649 18.46C517.249 18.22 518.229 17.98 519.589 17.74C520.389 17.5 520.869 17.36 521.029 17.32C522.469 16.96 523.589 16.7 524.389 16.54C524.749 16.34 525.249 16.2 525.889 16.12C526.569 16.04 527.049 15.96 527.329 15.88C527.529 15.76 527.789 15.64 528.109 15.52C528.469 15.4 528.809 15.26 529.129 15.1C529.249 14.94 529.309 14.58 529.309 14.02C529.229 13.82 529.149 13.62 529.069 13.42C528.989 13.18 528.909 12.96 528.829 12.76C528.629 12.64 528.449 12.38 528.289 11.98C528.169 11.58 528.069 11.3 527.989 11.14L526.609 9.52C525.689 8.88 524.949 8.5 524.389 8.38C524.069 8.34 523.529 8.26 522.769 8.14C522.009 8.02 521.409 7.98 520.969 8.02C520.369 8.02 519.849 8.1 519.409 8.26C519.289 8.26 518.969 8.28 518.449 8.32C517.929 8.36 517.529 8.46 517.249 8.62C516.809 8.66 516.229 8.74 515.509 8.86C514.789 8.98 514.309 9.06 514.069 9.1C512.869 9.18 512.009 9.3 511.489 9.46C511.249 9.46 510.829 9.52 510.229 9.64C510.109 9.44 510.049 9.1 510.049 8.62C510.049 8.3 510.069 7.98 510.109 7.66C510.149 7.34 510.169 7.02 510.169 6.7C510.089 6.46 510.049 6.14 510.049 5.74C510.049 5.58 510.069 5.3 510.109 4.9C510.149 4.5 510.149 4.2 510.109 4C510.069 3.68 509.909 3.34 509.629 2.98C509.389 2.62 509.249 2.4 509.209 2.32C508.689 1.68 508.109 1.26 507.469 1.06L507.349 0.939997ZM505.429 26.56C505.429 29.2 505.369 31.22 505.249 32.62L505.129 38.68C502.209 39.2 500.409 39.54 499.729 39.7C499.529 39.7 499.429 39.62 499.429 39.46C499.429 39.38 499.609 39.08 499.969 38.56C500.129 38.36 500.269 38.14 500.389 37.9C500.429 37.82 500.509 37.7 500.629 37.54C500.789 37.38 500.869 37.24 500.869 37.12V37L501.289 35.8C501.689 34.64 502.049 33.78 502.369 33.22H502.429C502.429 33.14 502.449 32.98 502.489 32.74C502.529 32.46 502.629 32.3 502.789 32.26C502.829 31.98 502.949 31.66 503.149 31.3C503.389 30.9 503.549 30.62 503.629 30.46C504.269 28.58 504.829 27.2 505.309 26.32L505.369 26.38L505.429 26.56Z" fill="#FFFDFD"/>
<path d="M188.94 9.16C187.34 9.36 185.86 9.96 184.5 10.96C183.86 11.16 183.14 11.68 182.34 12.52C181.54 13.36 180.86 14.2 180.3 15.04C180.1 15.44 179.82 15.94 179.46 16.54C179.06 17.5 178.8 18.24 178.68 18.76C178.56 19.28 178.5 20.14 178.5 21.34C178.5 22.86 178.6 23.72 178.8 23.92L178.86 24.58L178.98 25.06L179.28 25.54L179.64 26.2L179.82 26.56C179.94 26.68 180.18 26.96 180.54 27.4C180.9 27.84 181.26 28.24 181.62 28.6C182.22 29.08 182.6 29.32 182.76 29.32C182.92 29.48 183.16 29.62 183.48 29.74C183.8 29.86 184.06 29.98 184.26 30.1L185.52 30.58L186.3 30.76C187.26 31.08 189.34 31.24 192.54 31.24H195L199.44 31.12C200.12 31.2 200.8 31.34 201.48 31.54C202.16 31.74 202.5 31.92 202.5 32.08L202.68 32.2H202.8C202.92 32.2 203.06 32.32 203.22 32.56C203.42 32.76 203.56 32.92 203.64 33.04C203.68 33.24 203.72 33.46 203.76 33.7C203.8 33.9 203.82 34.08 203.82 34.24C203.82 35.4 203.6 36.36 203.16 37.12C203 37.16 202.72 37.66 202.32 38.62C201.88 39.46 201.3 40.18 200.58 40.78C199.78 41.5 199.06 42.02 198.42 42.34C197.82 42.62 196.42 43.12 194.22 43.84C193.94 43.92 193.6 44.04 193.2 44.2C192.8 44.32 192.52 44.38 192.36 44.38L191.58 44.5C190.9 44.74 189.76 44.9 188.16 44.98L186.84 45.16L185.4 44.98C184.92 44.9 184.5 44.86 184.14 44.86C183.78 44.86 183.48 44.84 183.24 44.8C182.64 44.8 182.02 44.78 181.38 44.74C180.78 44.66 180.38 44.62 180.18 44.62C179.98 44.54 179.78 44.54 179.58 44.62C179.42 44.66 179.44 44.72 179.64 44.8C179.64 44.84 179.68 44.92 179.76 45.04C179.88 45.16 180.02 45.36 180.18 45.64C180.26 45.88 180.52 46.22 180.96 46.66C181.24 46.9 181.48 47.08 181.68 47.2C181.92 47.36 182.12 47.44 182.28 47.44L182.58 47.56L183.96 47.98C184.64 48.22 185.04 48.36 185.16 48.4C185.32 48.4 185.4 48.42 185.4 48.46L185.88 48.64L186.36 48.94C186.44 49.02 186.56 49.06 186.72 49.06L187.68 49.24C187.72 49.28 187.98 49.34 188.46 49.42C188.98 49.5 189.58 49.62 190.26 49.78L191.88 49.9L193.2 49.78C193.4 49.78 193.68 49.76 194.04 49.72C194.4 49.68 194.68 49.64 194.88 49.6C194.96 49.6 195.08 49.56 195.24 49.48C195.4 49.44 195.58 49.4 195.78 49.36L196.2 49.24C196.64 49.12 197.06 48.98 197.46 48.82C197.9 48.66 198.24 48.54 198.48 48.46L200.1 47.8C200.58 47.6 201.04 47.36 201.48 47.08C201.96 46.8 202.44 46.48 202.92 46.12L204.12 45.28C205.28 44.24 206.06 43.42 206.46 42.82L207.12 41.92L207.24 41.74L207.48 41.2L207.72 40.78L207.96 40.3C208 40.22 208.08 40.12 208.2 40C208.32 39.88 208.38 39.76 208.38 39.64L208.56 38.8C208.76 38.24 208.86 37.3 208.86 35.98V35.14C208.5 33.46 208.08 32.08 207.6 31C207.12 29.92 206.52 29.08 205.8 28.48C204.56 27.56 203.7 27.06 203.22 26.98C202.9 26.98 202.74 26.92 202.74 26.8L202.32 26.68L200.58 26.32C198.94 26 196.76 25.84 194.04 25.84L190.08 26.02H187.8L187.14 25.66C186.26 25.3 185.24 24.48 184.08 23.2C183.76 22.76 183.6 22.28 183.6 21.76C183.6 21.4 183.74 20.8 184.02 19.96C184.06 19.64 184.16 19.36 184.32 19.12C184.48 18.88 184.76 18.54 185.16 18.1L186 17.2C186.88 16.24 187.6 15.68 188.16 15.52L189.42 15.04L189.9 14.8L190.62 14.56C191.94 14.12 193.48 13.9 195.24 13.9C195.84 13.9 196.32 13.92 196.68 13.96C197.48 13.96 198.12 13.98 198.6 14.02C199.12 14.06 199.38 14.1 199.38 14.14C199.42 14.22 199.56 14.26 199.8 14.26C200.36 14.26 201.26 14.44 202.5 14.8L204 15.04C204.32 15.04 204.48 15 204.48 14.92L204.96 14.8C205.16 14.8 205.28 14.78 205.32 14.74C205.4 14.66 205.46 14.54 205.5 14.38L205.8 13.96C205.84 13.88 205.86 13.74 205.86 13.54C205.86 13.22 205.72 12.74 205.44 12.1C205.24 11.74 204.9 11.36 204.42 10.96C203.94 10.56 203.58 10.34 203.34 10.3L203.16 10L201.54 9.34C200.9 9.1 200.32 8.98 199.8 8.98C199.64 8.98 199.46 8.96 199.26 8.92C199.1 8.84 198.98 8.78 198.9 8.74C198.02 8.46 196.78 8.32 195.18 8.32C194.3 8.32 193.7 8.34 193.38 8.38L191.22 8.74L188.94 9.16ZM259.24 6.28C259.12 6.28 259.08 6.34 259.12 6.46C259.16 6.5 259.18 6.54 259.18 6.58C259.18 6.58 259.16 6.58 259.12 6.58L259.06 6.64C259.06 6.8 259.02 6.88 258.94 6.88L258.88 7.12C258.88 7.12 258.88 7.14 258.88 7.18C258.92 7.18 258.94 7.18 258.94 7.18C258.94 7.3 258.86 7.5 258.7 7.78L258.16 10.6L257.92 11.38L257.74 12.16C257.74 12.32 257.72 12.46 257.68 12.58C257.64 12.66 257.62 12.74 257.62 12.82L257.32 13.9L256.9 15.46C256.78 15.78 256.7 16.04 256.66 16.24C256.62 16.4 256.58 16.52 256.54 16.6L256.48 16.84C256.4 16.84 256.36 16.88 256.36 16.96L256.3 17.38L255.82 18.94C255.82 19.26 255.72 19.62 255.52 20.02L255.16 21.58L254.92 22.54C254.92 22.7 254.88 22.9 254.8 23.14C254.72 23.34 254.64 23.54 254.56 23.74L253.84 26.26L253.6 26.8L253.48 27.22L253.36 27.64L253.3 27.88L252.1 31.84C252.1 31.92 252.08 32 252.04 32.08C252 32.12 251.96 32.18 251.92 32.26L251.74 32.92L251.5 33.64L251.38 34.06L251.2 33.76L251.14 33.46L250.96 32.92L250.42 31.72L250.24 31.18L250.18 30.88C249.94 30.44 249.82 30.14 249.82 29.98C249.82 29.94 249.8 29.92 249.76 29.92C249.68 29.92 249.64 29.86 249.64 29.74C249.64 29.5 249.58 29.3 249.46 29.14L249.22 28.66L249.1 28.18C248.98 27.94 248.92 27.76 248.92 27.64L248.8 27.34C248.8 27.34 248.74 27.16 248.62 26.8C248.42 26.2 248.08 25.42 247.6 24.46L247.12 23.38L246.94 22.84L245.98 21.1L245.38 19.66C245.26 19.58 245.1 19.38 244.9 19.06C244.74 18.7 244.6 18.42 244.48 18.22L244.42 18.16C244.26 17.68 243.8 16.62 243.04 14.98C242.88 14.82 242.8 14.66 242.8 14.5L242.62 13.96C242.5 13.84 242.42 13.76 242.38 13.72C242.34 13.64 242.32 13.58 242.32 13.54L242.08 13.12L241.9 12.46C241.66 11.54 241.48 10.98 241.36 10.78C241.28 10.54 241.06 10.22 240.7 9.82L240.04 9.1L239.92 9.04L239.86 8.92C239.78 8.88 239.68 8.94 239.56 9.1L239.26 9.34C239.26 9.42 239.2 9.56 239.08 9.76L238.12 11.5L237.76 12.16L235.66 16.66L235 18.16L234.46 19.48L234.34 19.84C234.3 19.88 234.12 20.28 233.8 21.04L232.9 23.32C232.82 23.72 232.72 24 232.6 24.16C232.56 24.28 232.46 24.54 232.3 24.94C232.14 25.3 231.98 25.68 231.82 26.08C231.74 26.36 231.64 26.6 231.52 26.8C231.44 26.96 231.4 27.08 231.4 27.16C231.12 27.84 230.94 28.28 230.86 28.48L230.5 29.32C230.34 29.68 230.2 30.04 230.08 30.4C230 30.72 229.92 30.92 229.84 31L229.66 31.66L229.3 32.26C229.02 32.94 228.86 33.3 228.82 33.34L228.58 33.88L228.52 34.12C228.44 34.36 228.36 34.54 228.28 34.66C228.2 34.78 228.16 34.86 228.16 34.9L228.1 35.14L227.98 35.44L227.86 35.62C227.86 35.74 227.82 35.88 227.74 36.04C227.66 36.16 227.58 36.24 227.5 36.28L227.44 36.16C227.36 36 227.3 35.66 227.26 35.14L226.54 32.26L226.06 30.28L225.88 29.92L225.64 28.3L225.4 27.58L225.34 27.22C225.3 27.18 225.28 27.1 225.28 26.98C225.24 26.82 225.18 26.7 225.1 26.62L224.44 23.74L224.32 23.26L224.26 22.96C224.18 22.88 224.12 22.66 224.08 22.3L223.84 21.64L223.78 21.22C223.58 20.82 223.36 20.08 223.12 19C223.16 19 223.18 19 223.18 19C223.18 18.96 223.16 18.94 223.12 18.94C223.08 18.94 222.96 18.52 222.76 17.68C222.44 16.6 222.28 16.04 222.28 16C222.28 15.88 222.26 15.8 222.22 15.76L222.1 15.34L221.86 14.86C221.78 14.78 221.74 14.66 221.74 14.5C221.74 14.3 221.64 14 221.44 13.6C221.4 13.56 221.38 13.46 221.38 13.3L221.32 13.06C221.28 12.94 221.22 12.8 221.14 12.64C221.1 12.48 221.04 12.26 220.96 11.98C220.92 11.54 220.82 11.24 220.66 11.08C220.62 11.04 220.6 10.96 220.6 10.84L220.54 10.6C220.54 10.4 220.44 10.18 220.24 9.94L220.12 9.34C219.8 9.06 219.3 8.9 218.62 8.86C218.18 8.86 217.9 8.8 217.78 8.68L215.8 8.62C214.44 8.62 213.68 8.64 213.52 8.68L212.98 8.86C212.86 8.86 212.68 8.9 212.44 8.98C212.2 9.06 212.06 9.1 212.02 9.1C212.02 9.18 212.04 9.22 212.08 9.22C212.16 9.22 212.2 9.26 212.2 9.34C212.2 9.42 212.14 9.48 212.02 9.52H211.84L211.96 9.94C212.12 10.5 212.2 10.84 212.2 10.96L212.38 11.92L212.62 12.7C212.7 13.18 212.84 13.7 213.04 14.26L213.34 15.7L213.46 16.36C213.54 16.76 213.58 17.06 213.58 17.26L213.88 18.28L214.36 20.26L214.42 20.8L214.78 22.6L215.02 23.38C215.02 23.5 215.04 23.62 215.08 23.74C215.12 23.86 215.14 24 215.14 24.16L215.44 24.94C215.44 25.1 215.46 25.24 215.5 25.36C215.54 25.48 215.56 25.6 215.56 25.72C215.6 25.8 215.64 25.92 215.68 26.08C215.76 26.24 215.8 26.38 215.8 26.5C215.84 26.54 215.86 26.68 215.86 26.92L215.98 27.22C216.02 27.34 216.06 27.46 216.1 27.58C216.14 27.7 216.16 27.82 216.16 27.94L216.52 29.08L217.42 32.8L217.84 34.18C217.88 34.3 217.94 34.46 218.02 34.66C218.1 34.82 218.16 34.98 218.2 35.14L218.38 35.92L218.62 36.46L218.74 37.18L219.1 38.62C219.14 38.78 219.18 38.92 219.22 39.04C219.3 39.12 219.34 39.2 219.34 39.28L219.46 39.94C219.54 40.02 219.58 40.16 219.58 40.36C219.58 40.48 219.6 40.58 219.64 40.66C219.68 40.74 219.72 40.78 219.76 40.78L220.12 42.22L220.18 42.76L220.36 43.66C220.52 43.86 220.6 44.12 220.6 44.44L220.66 44.68L220.78 44.98C220.78 45.14 220.82 45.22 220.9 45.22L220.96 45.7C221.08 46.42 221.24 47.08 221.44 47.68C221.6 48.08 221.82 48.5 222.1 48.94C222.38 49.42 222.56 49.66 222.64 49.66C222.76 49.66 222.86 49.7 222.94 49.78C223.02 49.86 223.28 49.9 223.72 49.9C224.04 49.9 224.72 49.82 225.76 49.66L226.42 49.48C226.9 49.36 227.32 49.16 227.68 48.88C227.68 48.84 227.72 48.82 227.8 48.82C227.92 48.82 228.02 48.72 228.1 48.52L228.4 47.8C228.52 47.4 228.62 47.08 228.7 46.84C228.82 46.64 228.88 46.48 228.88 46.36L229.78 44.2L230.2 42.94L230.74 41.92C230.78 41.88 230.8 41.82 230.8 41.74L230.98 41.2C231.06 40.88 231.18 40.64 231.34 40.48C231.34 40.32 231.34 40.2 231.34 40.12C231.38 40.04 231.4 39.98 231.4 39.94C231.4 39.9 231.42 39.86 231.46 39.82C231.54 39.74 231.58 39.66 231.58 39.58L232.42 37.54L233.2 35.32L233.5 34.6L233.8 33.64L234.04 33.04L234.16 32.62L234.34 32.02C234.38 31.94 234.42 31.86 234.46 31.78C234.5 31.66 234.52 31.56 234.52 31.48L235.12 30.16L235.66 28.84L236.38 27.22L236.8 26.26L237.1 25.72L237.34 24.88C237.34 24.8 237.4 24.64 237.52 24.4C237.68 24.12 237.76 23.92 237.76 23.8L238 23.26L238.12 22.96C238.12 22.84 238.2 22.7 238.36 22.54L238.48 22L238.66 21.58L238.84 21.1L238.96 20.86L239.08 20.62C239.08 20.5 239.2 20.18 239.44 19.66L239.92 18.16L239.98 17.8C240.02 17.84 240.04 17.9 240.04 17.98C240.04 18.02 240.06 18.06 240.1 18.1L240.34 18.58C240.34 18.62 240.36 18.68 240.4 18.76C240.44 18.84 240.46 18.94 240.46 19.06C240.62 19.26 240.7 19.44 240.7 19.6L240.82 19.9L241.06 20.62C241.3 21.06 241.46 21.56 241.54 22.12L241.66 22.36C241.7 22.36 241.72 22.42 241.72 22.54C241.72 22.66 241.76 22.74 241.84 22.78L242.2 23.62C242.76 25.14 243.36 26.6 244 28L244.78 30.1L244.9 30.28C244.98 30.28 245.02 30.34 245.02 30.46L245.2 30.94L245.5 31.66C245.54 31.74 245.56 31.86 245.56 32.02L247 34.72C247 35.08 247.08 35.38 247.24 35.62C247.32 35.7 247.36 35.78 247.36 35.86C247.36 35.9 247.4 35.96 247.48 36.04L247.54 36.22C247.54 36.38 247.9 37.18 248.62 38.62L248.92 39.22L250 41.5C250.12 41.66 250.22 41.82 250.3 41.98C250.38 42.1 250.42 42.2 250.42 42.28L250.54 42.64C250.58 42.64 250.6 42.74 250.6 42.94C250.6 43.02 250.64 43.22 250.72 43.54L251.14 44.32C251.18 44.68 251.5 45 252.1 45.28L252.88 45.76L254.56 46.48L255.46 46.78C255.78 46.86 256.02 46.9 256.18 46.9C256.62 46.9 256.9 46.78 257.02 46.54L257.14 46.12C257.14 46 257.2 45.94 257.32 45.94L257.44 45.64L257.62 45.28C257.7 45.2 257.74 45.1 257.74 44.98L257.86 44.68C257.94 44.6 258.02 44.48 258.1 44.32C258.18 44.12 258.22 43.94 258.22 43.78L258.28 43.54V43.36C258.28 43.2 258.3 43.02 258.34 42.82C258.42 42.62 258.48 42.44 258.52 42.28L258.82 41.68C258.82 41.48 258.84 41.32 258.88 41.2C258.92 41.08 258.94 40.98 258.94 40.9L259.12 40.06C259.56 38.06 259.88 36.92 260.08 36.64L260.14 36.52V36.46C260.14 36.22 260.28 35.74 260.56 35.02L261.1 33.22L261.7 31L261.82 30.7L262 30.28L262.06 30.04L262.18 29.62C262.3 29.5 262.38 29.3 262.42 29.02L263.02 26.5L263.32 25.66L264.22 21.7L264.4 21.22C264.4 21.14 264.42 21.06 264.46 20.98C264.5 20.9 264.54 20.82 264.58 20.74C264.58 20.58 264.6 20.44 264.64 20.32C264.72 20.16 264.76 20.04 264.76 19.96C264.88 19.76 264.98 19.38 265.06 18.82L265.24 18.22L265.36 17.98V17.5L265.66 16.66C265.66 16.58 265.68 16.48 265.72 16.36C265.76 16.2 265.78 16.04 265.78 15.88C266.02 15.48 266.16 14.78 266.2 13.78L266.44 12.82C266.52 12.42 266.56 12.1 266.56 11.86C266.52 11.38 266.44 11.04 266.32 10.84L266.08 10.54C265.72 10.02 265.28 9.52 264.76 9.04L263.8 8.38C263.76 8.22 263.52 8.04 263.08 7.84C263 7.76 262.88 7.68 262.72 7.6C262.6 7.52 262.44 7.42 262.24 7.3C262.04 7.22 261.9 7.12 261.82 7C261.82 6.96 261.76 6.94 261.64 6.94C261.52 6.94 261.42 6.9 261.34 6.82L261.1 6.76L260.8 6.52L260.26 6.34C260.14 6.34 260.06 6.26 260.02 6.1C259.98 6.06 259.92 6.02 259.84 5.98C259.76 5.94 259.72 5.96 259.72 6.04L259.48 6.1L259.3 6.16L259.24 6.28ZM272.615 5.98C272.615 6.02 272.135 6.08 271.175 6.16C270.975 6.16 270.875 6.22 270.875 6.34L270.635 7C270.635 7.24 270.615 7.38 270.575 7.42L270.515 7.84C270.435 8.28 270.355 9.48 270.275 11.44L270.215 12.88C270.215 13.72 270.195 14.16 270.155 14.2L270.035 15.16V18.82C269.995 22.46 269.915 25.8 269.795 28.84V30.4L269.675 32.2V37.54L269.615 42.04L269.555 42.16L269.675 44.08C269.675 45.16 269.715 45.86 269.795 46.18L269.915 46.72C269.915 46.88 269.975 47.06 270.095 47.26C270.255 47.5 270.395 47.62 270.515 47.62C270.595 47.62 270.655 47.68 270.695 47.8L270.995 47.92L271.115 47.98C271.195 48.02 271.295 48.08 271.415 48.16C271.575 48.24 271.715 48.28 271.835 48.28C271.955 48.28 272.255 48.34 272.735 48.46C272.775 48.5 272.835 48.52 272.915 48.52C273.075 48.56 273.535 48.74 274.295 49.06L274.655 49.18C274.695 49.18 274.795 49.26 274.955 49.42C275.515 49.7 275.975 49.84 276.335 49.84C276.495 49.88 276.615 49.88 276.695 49.84C276.775 49.84 276.855 49.8 276.935 49.72C277.055 49.68 277.135 49.54 277.175 49.3L277.235 49C277.275 49 277.295 48.94 277.295 48.82C277.295 48.66 277.335 48.54 277.415 48.46L277.475 48.04L277.535 47.26C277.575 47.02 277.595 46.46 277.595 45.58C277.635 45.38 277.655 45.16 277.655 44.92C277.655 44.68 277.675 44.48 277.715 44.32V40.84L277.775 38.62C277.775 37.34 277.795 36.64 277.835 36.52C277.955 34.76 278.015 32.8 278.015 30.64V14.8C278.055 14.76 278.075 13.1 278.075 9.82C277.995 9.74 277.955 9.16 277.955 8.08C277.955 7.68 277.815 7.3 277.535 6.94C277.215 6.74 276.975 6.64 276.815 6.64C276.575 6.64 276.455 6.6 276.455 6.52C276.135 6.4 275.475 6.28 274.475 6.16C274.155 6.12 273.915 6.08 273.755 6.04C273.595 6 273.435 5.98 273.275 5.98H273.155C273.155 6.02 273.115 6.04 273.035 6.04C272.955 6 272.855 5.96 272.735 5.92C272.655 5.92 272.615 5.94 272.615 5.98ZM284.338 5.62C284.338 5.7 284.198 5.74 283.918 5.74C283.798 5.74 283.678 5.72 283.558 5.68C283.438 5.64 283.338 5.62 283.258 5.62C283.138 5.58 283.078 5.62 283.078 5.74H282.958H282.898C282.938 5.78 282.938 5.82 282.898 5.86C282.858 5.9 282.818 5.9 282.778 5.86C282.658 5.98 282.598 6.1 282.598 6.22V6.4C282.558 6.44 282.538 6.52 282.538 6.64C282.538 6.72 282.498 6.82 282.418 6.94C282.418 7.18 282.378 7.5 282.298 7.9L282.058 8.86V9.34L281.998 10.06C281.998 10.3 281.978 10.52 281.938 10.72C281.898 10.92 281.878 11.08 281.878 11.2C281.878 11.48 281.858 11.82 281.818 12.22C281.778 12.58 281.758 13.02 281.758 13.54V15.22V17.8C281.718 20.4 281.658 21.8 281.578 22L281.398 28.06V32.8V34C281.358 34 281.338 34.36 281.338 35.08L281.278 36.46L281.218 40.9L281.158 42.4C281.158 43.24 281.138 43.72 281.098 43.84V45.88V47.02L281.278 47.86C281.278 47.86 281.318 48.06 281.398 48.46C281.558 48.54 281.658 48.62 281.698 48.7C281.778 48.82 281.878 48.92 281.998 49C282.158 49.08 282.298 49.12 282.418 49.12H282.538C282.778 49.12 283.038 49.18 283.318 49.3L283.618 49.42H283.798L284.038 49.54L284.338 49.6C284.378 49.64 284.458 49.68 284.578 49.72C284.698 49.76 284.798 49.78 284.878 49.78C285.238 49.86 285.578 49.92 285.898 49.96C286.258 50.04 286.478 50.12 286.558 50.2C286.558 50.24 286.578 50.26 286.618 50.26C286.658 50.26 286.678 50.24 286.678 50.2C286.758 50.2 286.818 50.24 286.858 50.32C286.858 50.36 286.918 50.38 287.038 50.38C287.198 50.38 287.278 50.42 287.278 50.5L287.938 50.56C288.218 50.56 288.418 50.5 288.538 50.38L288.658 50.02L288.898 49.72C289.098 49.44 289.218 48.96 289.258 48.28V36.82V32.38C289.298 32.38 289.298 32.36 289.258 32.32V31.9V30.52L289.318 29.5C289.358 29.46 289.378 29.18 289.378 28.66C289.378 28.18 289.398 27.92 289.438 27.88C289.558 27.88 289.818 27.84 290.218 27.76C290.658 27.68 291.078 27.62 291.478 27.58C291.798 27.58 292.158 27.54 292.558 27.46C293.238 27.3 294.238 27.22 295.558 27.22H297.958C300.598 27.22 302.278 27.2 302.998 27.16L306.958 27.1C308.478 27.1 309.718 27.16 310.678 27.28C311.038 27.32 311.418 27.32 311.818 27.28C312.258 27.24 312.638 27.18 312.958 27.1C313.118 27.1 313.238 27.04 313.318 26.92C313.398 26.8 313.458 26.72 313.498 26.68C313.538 26.56 313.578 26.46 313.618 26.38C313.698 26.26 313.738 26.14 313.738 26.02C313.738 25.94 313.698 25.82 313.618 25.66C313.538 25.5 313.478 25.34 313.438 25.18L313.258 24.7L313.198 24.58L313.138 24.52L313.078 24.34C312.958 24.06 312.718 23.84 312.358 23.68C311.598 23.28 310.798 23.06 309.958 23.02L302.398 22.96C299.918 22.96 298.118 23 296.998 23.08L294.238 23.32L293.218 23.44L292.258 23.56L291.658 23.68C291.258 23.76 290.918 23.8 290.638 23.8L290.218 23.92L289.798 23.98H289.558V16.96C289.558 14.64 289.578 13.46 289.618 13.42L290.098 13.3L291.898 13.24C291.938 13.24 291.998 13.24 292.078 13.24C292.198 13.2 292.278 13.2 292.318 13.24C292.438 13.24 292.518 13.22 292.558 13.18H293.218C293.458 13.1 294.078 13.06 295.078 13.06C296.238 13.06 296.838 13.04 296.878 13C296.918 12.92 297.338 12.88 298.138 12.88L299.398 12.82C299.878 12.74 302.658 12.7 307.738 12.7C309.898 12.7 311.098 12.62 311.338 12.46L311.698 12.34L311.938 12.28H312.178C312.578 12.2 312.958 12.06 313.318 11.86C313.718 11.66 313.938 11.5 313.978 11.38C314.018 11.34 314.038 11.14 314.038 10.78C314.038 10.54 314.018 10.42 313.978 10.42L313.918 10.18C313.678 9.14 313.238 8.42 312.598 8.02C312.478 7.94 312.198 7.76 311.758 7.48C311.358 7.2 311.118 7.06 311.038 7.06C310.918 7.06 310.838 7.04 310.798 7C310.758 7 310.678 7 310.558 7C310.438 6.96 310.198 6.94 309.838 6.94H309.418C309.258 6.98 309.118 6.98 308.998 6.94C308.918 6.86 308.438 6.82 307.558 6.82L303.958 6.88C300.598 6.88 298.858 6.9 298.738 6.94L296.578 7C294.658 7 293.498 7.04 293.098 7.12C292.138 7.28 291.258 7.36 290.458 7.36H289.918L289.798 7.12L289.438 6.82C289.398 6.82 289.318 6.76 289.198 6.64C289.158 6.6 289.118 6.56 289.078 6.52C289.038 6.44 288.978 6.4 288.898 6.4L288.538 6.28C287.938 6.08 287.438 5.94 287.038 5.86C286.678 5.78 286.158 5.74 285.478 5.74H284.698L284.458 5.56C284.378 5.52 284.338 5.54 284.338 5.62ZM347.076 5.98C346.276 5.98 344.916 6.06 342.996 6.22C341.076 6.38 339.716 6.46 338.916 6.46C338.276 6.46 337.696 6.52 337.176 6.64C336.136 6.64 335.096 6.68 334.056 6.76L331.716 7C330.676 7.04 329.756 7.12 328.956 7.24C328.196 7.32 327.696 7.38 327.456 7.42C326.376 7.58 325.716 7.72 325.476 7.84L324.936 7.9C324.776 7.9 324.656 7.92 324.576 7.96C324.536 7.96 324.496 7.96 324.456 7.96C324.016 7.96 323.676 8 323.436 8.08C323.196 8.12 323.056 8.14 323.016 8.14C322.656 8.14 322.056 8.22 321.216 8.38L319.176 8.98C319.016 9.02 318.816 9.08 318.576 9.16C318.376 9.2 318.236 9.2 318.156 9.16C318.116 9.12 318.016 9.04 317.856 8.92C317.736 8.8 317.676 8.82 317.676 8.98C317.756 9.1 317.716 9.16 317.556 9.16C317.436 9.12 317.336 9.12 317.256 9.16C317.176 9.16 317.116 9.18 317.076 9.22V9.28C317.156 9.32 317.176 9.36 317.136 9.4C317.096 9.44 317.056 9.46 317.016 9.46V9.64C317.256 10.04 317.376 10.44 317.376 10.84L317.436 11.02C317.436 11.06 317.456 11.22 317.496 11.5C317.576 11.78 317.636 12.2 317.676 12.76C317.676 13.36 317.716 13.7 317.796 13.78V14.32C317.796 14.6 317.896 15.04 318.096 15.64C318.296 16.2 318.456 16.48 318.576 16.48H318.936L319.176 16.72C319.776 16.84 320.176 16.9 320.376 16.9H320.496C320.496 16.86 320.676 16.84 321.036 16.84C322.116 16.72 323.136 16.52 324.096 16.24C324.656 16.16 324.936 16.1 324.936 16.06C325.016 16.02 325.136 16 325.296 16C325.616 15.84 326.056 15.72 326.616 15.64L327.456 15.52L328.176 15.4C328.176 15.32 328.236 15.28 328.356 15.28L329.436 15.16L330.816 15.1L334.056 14.68H334.296V22.18C334.296 28.3 334.316 31.7 334.356 32.38V36.94L334.296 41.86C334.296 43.98 334.276 45.38 334.236 46.06C334.236 47.34 334.276 48.5 334.356 49.54C334.476 49.7 334.616 49.82 334.776 49.9L335.196 50.02C335.236 50.02 335.316 50.04 335.436 50.08C335.556 50.16 335.736 50.14 335.976 50.02C336.056 50.02 336.116 50.08 336.156 50.2C336.156 50.24 336.176 50.24 336.216 50.2C336.296 50.2 336.336 50.16 336.336 50.08L336.396 49.9L336.516 50.26V50.02C336.516 49.86 336.636 49.8 336.876 49.84C336.916 49.88 337.056 49.86 337.296 49.78L337.596 49.54H337.656C337.856 49.54 338.016 49.44 338.136 49.24C338.216 49.04 338.276 48.94 338.316 48.94L338.436 48.88L338.616 48.7C338.776 48.66 338.896 48.54 338.976 48.34C339.056 48.18 339.096 48.02 339.096 47.86L339.156 47.62C339.276 47.5 339.376 46.98 339.456 46.06C339.576 45.14 339.636 43.94 339.636 42.46V20.68C339.556 19.08 339.516 17.72 339.516 16.6C339.516 15.84 339.536 15.32 339.576 15.04V14.2H341.676L342.996 14.14C343.636 14.14 344.036 14.12 344.196 14.08H347.496L350.196 14.02C350.436 13.98 351.156 13.96 352.356 13.96L353.796 13.9C353.796 13.86 353.976 13.84 354.336 13.84L354.936 13.78C355.016 13.78 355.076 13.78 355.116 13.78C355.156 13.74 355.176 13.74 355.176 13.78L355.296 13.84C355.416 13.84 355.556 13.68 355.716 13.36C355.876 13.04 355.956 12.68 355.956 12.28C355.956 11.96 355.936 11.74 355.896 11.62C355.776 11.46 355.716 11.18 355.716 10.78C355.676 9.9 355.616 9.26 355.536 8.86C355.456 8.74 355.416 8.58 355.416 8.38V8.32V8.08C355.296 7.44 355.056 6.98 354.696 6.7C354.456 6.38 354.216 6.22 353.976 6.22C353.976 6.26 353.956 6.28 353.916 6.28C353.916 6.24 353.676 6.22 353.196 6.22C353.036 6.18 352.716 6.16 352.236 6.16C352.236 6.16 352.176 6.1 352.056 5.98H347.076Z" fill="white"/>
</svg>
