<?xml version="1.0" encoding="UTF-8" standalone="no"?> <!-- Created with Vectornator for iOS (http://vectornator.io/) --><!DOCTYPE svg PUBLIC "-//W3C//DTD SVG 1.1//EN" "http://www.w3.org/Graphics/SVG/1.1/DTD/svg11.dtd">
<svg style="fill-rule:evenodd;clip-rule:evenodd;stroke-linecap:round;stroke-linejoin:round;" xmlns:vectornator="http://vectornator.io" xmlns:xlink="http://www.w3.org/1999/xlink" xmlns="http://www.w3.org/2000/svg" xml:space="preserve" version="1.1" viewBox="0 0 1024 1024">
<metadata>
<vectornator:setting key="RulersVisible" value="1"/>
<vectornator:setting key="Units" value="Pixels"/>
<vectornator:setting key="DynamicGuides" value="1"/>
<vectornator:setting key="GuidesVisible" value="1"/>
<vectornator:setting key="CMYKEnabledKey" value="0"/>
<vectornator:setting key="SnapToGuides" value="1"/>
<vectornator:setting key="GridSpacing" value="36"/>
</metadata>
<defs/>
<g id="Untitled" vectornator:layerName="Untitled">
<path d="M1000.34+224.968C972.673+265.484+939.192+299.997+899.892+328.506C900.315+334.272+900.527+342.946+900.527+354.53C900.527+408.269+892.672+461.876+876.963+515.351C861.254+568.826+837.399+620.159+805.399+669.35C773.398+718.541+735.289+762.045+691.07+799.864C646.851+837.683+593.535+867.858+531.121+890.391C468.707+912.923+401.982+924.189+330.947+924.189C218.972+924.189+116.491+894.225+23.5048+834.297C37.9447+835.937+54.0507+836.757+71.8228+836.757C164.809+836.757+247.666+808.248+320.394+751.229C277.022+750.382+238.172+737.053+203.844+711.241C169.517+685.43+145.953+652.477+133.152+612.384C146.799+614.447+159.414+615.478+170.998+615.478C188.77+615.478+206.33+613.204+223.679+608.655C177.398+599.134+139.076+576.099+108.716+539.55C78.3551+503.001+63.1747+460.554+63.1747+412.21L63.1747+409.75C91.261+425.459+121.437+433.922+153.701+435.139C126.409+416.944+104.722+393.195+88.6428+363.892C72.5633+334.589+64.4971+302.774+64.4442+268.446C64.4442+232.055+73.5418+198.389+91.7371+167.446C141.721+229.014+202.575+278.284+274.298+315.256C346.021+352.229+422.769+372.778+504.542+376.903C501.263+361.194+499.623+345.908+499.623+331.045C499.623+275.666+519.141+228.459+558.176+189.424C597.211+150.388+644.418+130.871+699.797+130.871C757.662+130.871+806.43+151.949+846.1+194.105C891.165+185.43+933.532+169.324+973.202+145.787C957.916+193.285+928.587+230.072+885.214+256.148C923.668+252.023+962.095+241.682+1000.5+225.126L1000.34+224.968Z" opacity="1" fill="#00aced"/>
</g>
</svg>
