<svg width="43" height="43" viewBox="0 0 43 43" fill="none" xmlns="http://www.w3.org/2000/svg">
<path fill-rule="evenodd" clip-rule="evenodd" d="M24.9763 5.47534V37.5435H28.1546L29.3092 41.5664L34.9 37.5435H42.7636V5.47534H24.9763ZM39.1539 33.9034H35.4591L30.7433 37.5009L29.7164 33.9034H28.744V9.04862H39.1539V33.9034ZM23.1289 23.6212C23.1289 23.6212 23.1289 20.1938 21.4395 20.0054C19.7441 19.817 14.4814 20.0054 14.4814 20.0054V9.33423H22.2842C22.2842 9.33423 22.1931 5.80956 20.686 5.80956H7.9912L9.96623 0C9.96623 0 6.76973 0.188386 5.63944 2.18772C4.51519 4.19312 0.844697 14.4753 0.844697 14.4753C0.844697 14.4753 2.06617 15.0466 4.13841 13.5212C6.20456 11.9959 6.86695 9.32814 6.86695 9.32814L10.6286 9.13975L10.7198 19.9993C10.7198 19.9993 4.22958 19.9021 2.91694 19.9993C1.59825 20.0965 0.850777 23.6151 0.850777 23.6151H10.7258C10.7258 23.6151 9.88116 29.6131 7.34095 33.9945C4.7947 38.3821 0 41.8095 0 41.8095C0 41.8095 3.47602 43.2376 6.86091 41.2383C10.2457 39.2389 12.7434 30.4395 12.7434 30.4395L20.686 40.2842C20.686 40.2842 21.4091 35.5989 20.5584 34.2741C19.7076 32.9493 15.0648 27.6319 15.0648 27.6319L13.0412 29.4429L14.4814 23.6212H23.1289Z" fill="white"/>
</svg>
