<svg width="49" height="47" viewBox="0 0 49 47" fill="none" xmlns="http://www.w3.org/2000/svg">
<path d="M0 24.0015C0 29.1895 1.492 33.8535 4.476 37.9935C7.46 42.1335 11.327 45.032 16.077 46.689C16.265 46.72 16.4215 46.7355 16.5465 46.7355C16.6715 46.7355 16.773 46.712 16.851 46.665C16.929 46.618 16.9915 46.571 17.0385 46.524C17.0855 46.477 17.117 46.399 17.133 46.29C17.149 46.181 17.157 46.103 17.157 46.056V41.3445C16.001 41.4695 14.9695 41.4615 14.0625 41.3205C13.1555 41.1795 12.4445 40.9605 11.9295 40.6635C11.4145 40.3665 10.9615 39.9995 10.5705 39.5625C10.1795 39.1255 9.914 38.727 9.774 38.367C9.634 38.007 9.4935 37.632 9.3525 37.242C9.2115 36.852 9.1255 36.6255 9.0945 36.5625C8.8135 36.0935 8.3915 35.664 7.8285 35.274C7.2655 34.884 6.8435 34.5715 6.5625 34.3365C6.2815 34.1015 6.25 33.875 6.468 33.657C8.031 32.844 9.7965 33.8755 11.7645 36.7515C12.8275 38.3455 14.687 38.8145 17.343 38.1585C17.656 36.8775 18.281 35.7835 19.218 34.8765C15.593 34.2205 12.9055 32.8765 11.1555 30.8445C9.4055 28.8125 8.5305 26.3435 8.5305 23.4375C8.5305 20.7185 9.39 18.359 11.109 16.359C10.421 14.328 10.515 12.1875 11.391 9.9375C12.297 9.8745 13.3125 10.054 14.4375 10.476C15.5625 10.898 16.3515 11.2575 16.8045 11.5545C17.2575 11.8515 17.656 12.125 18 12.375C19.781 11.875 21.789 11.625 24.024 11.625C26.259 11.625 28.2825 11.875 30.0945 12.375C30.5005 12.094 30.9535 11.797 31.4535 11.484C31.9535 11.171 32.719 10.835 33.75 10.476C34.781 10.117 35.734 9.9685 36.609 10.0305C37.453 12.2495 37.5625 14.359 36.9375 16.359C38.6875 18.359 39.5625 20.7185 39.5625 23.4375C39.5625 26.3435 38.672 28.82 36.891 30.867C35.11 32.914 32.4225 34.25 28.8285 34.875C30.1725 36.219 30.8445 37.844 30.8445 39.75V45.7965C30.8445 45.8275 30.86 45.8745 30.891 45.9375C30.891 46.1255 30.899 46.266 30.915 46.359C30.931 46.452 31.0015 46.546 31.1265 46.641C31.2515 46.736 31.439 46.783 31.689 46.782C36.47 45.157 40.384 42.2585 43.431 38.0865C46.478 33.9145 48.0015 29.219 48.0015 24C48.0015 20.75 47.3685 17.6405 46.1025 14.6715C44.8365 11.7025 43.1335 9.148 40.9935 7.008C38.8535 4.868 36.299 3.165 33.33 1.899C30.361 0.633 27.2515 0 24.0015 0C20.7515 0 17.642 0.633 14.673 1.899C11.704 3.165 9.1495 4.868 7.0095 7.008C4.8695 9.148 3.1665 11.7025 1.9005 14.6715C0.6345 17.6405 0.0015 20.75 0.0015 24L0 24.0015Z" fill="white"/>
</svg>
