<svg width="48" height="48" viewBox="0 0 48 48" fill="none" xmlns="http://www.w3.org/2000/svg">
<path d="M4 38.5455C4 37.0988 4.57467 35.7114 5.5976 34.6885C6.62052 33.6656 8.00791 33.0909 9.45455 33.0909C10.9012 33.0909 12.2886 33.6656 13.3115 34.6885C14.3344 35.7114 14.9091 37.0988 14.9091 38.5455C14.9091 39.9921 14.3344 41.3795 13.3115 42.4024C12.2886 43.4253 10.9012 44 9.45455 44C8.00791 44 6.62052 43.4253 5.5976 42.4024C4.57467 41.3795 4 39.9921 4 38.5455V38.5455ZM44 44H36.3818C36.3818 26.1455 21.8545 11.6182 4 11.6182V4C26.0545 4 44 21.9455 44 44V44ZM31.2727 44H23.4818C23.4818 33.2582 14.7418 24.52 4 24.52V16.7273C19.0382 16.7273 31.2727 28.9618 31.2727 44Z" fill="white"/>
</svg>
