<svg width="45" height="33" viewBox="0 0 45 33" fill="none" xmlns="http://www.w3.org/2000/svg">
<path d="M0.872292 4.92588C0.496009 4.65222 0.265108 4.43843 0.179589 4.28449C0.0940707 4.13056 0.0513114 3.89966 0.0513114 3.59179V2.66819C0.0513114 1.88141 0.265108 1.24002 0.692702 0.744014C1.1203 0.248005 1.8301 0 2.82212 0L42.1779 0.0513114C43.2383 0.0513114 43.9738 0.273661 44.3843 0.718359C44.7948 1.16306 45 1.77879 45 2.56556V3.59179C45 3.89966 44.9658 4.1049 44.8974 4.20753C44.829 4.31015 44.5895 4.5496 44.179 4.92588L24.6807 16.1631C24.3729 16.3341 23.9795 16.5308 23.5006 16.7531C23.0217 16.9755 22.6967 17.0867 22.5257 17.0867C22.1494 17.0867 21.4481 16.7617 20.4219 16.1117L19.6009 15.5986C19.0194 15.2908 18.2668 14.8803 17.3432 14.3672C16.4196 13.854 15.3763 13.264 14.2132 12.5969C13.0502 11.9299 11.8529 11.2372 10.6214 10.5188C7.748 8.87685 4.49829 7.01254 0.872292 4.92588V4.92588ZM43.1015 8.82554C43.683 8.44926 44.1448 8.29533 44.4869 8.36374C44.829 8.43216 45 8.70582 45 9.18472V27.0924C45 28.2554 44.8717 29.1705 44.6152 29.8375C44.3586 30.5046 43.9994 31.0091 43.5376 31.3512C43.0758 31.6933 42.5371 31.9071 41.9213 31.9926C41.3056 32.0781 40.6385 32.1209 39.9202 32.1209H5.64424C4.48119 32.1209 3.54048 31.9669 2.82212 31.6591C2.10376 31.3512 1.53934 30.9578 1.12885 30.4789C0.718358 30 0.427594 29.4441 0.256557 28.8113C0.0855189 28.1784 0 27.5371 0 26.8871V9.64652C0 8.99658 0.162486 8.58609 0.487457 8.41505C0.812429 8.24401 1.21437 8.32953 1.69327 8.67161C1.89852 8.80844 2.42018 9.14196 3.25827 9.67218C4.09635 10.2024 5.00285 10.7668 5.97776 11.3655C6.95268 11.9641 7.85063 12.52 8.67161 13.0331C9.49259 13.5462 9.9886 13.854 10.1596 13.9567C10.5701 14.2303 10.7668 14.5125 10.7497 14.8033C10.7326 15.0941 10.6385 15.3934 10.4675 15.7013C10.3307 15.9407 10.134 16.3341 9.87742 16.8814C9.62087 17.4287 9.34721 17.9932 9.05644 18.5747C8.76568 19.1562 8.49202 19.7121 8.23546 20.2423C7.9789 20.7725 7.78221 21.1574 7.64538 21.3968C7.50855 21.6363 7.46579 21.8415 7.5171 22.0125C7.56841 22.1836 7.65393 22.3119 7.77366 22.3974C7.89339 22.4829 8.04732 22.5086 8.23546 22.4743C8.4236 22.4401 8.60319 22.3204 8.77423 22.1152C8.87685 22.0125 9.12486 21.7303 9.51824 21.2685C9.91163 20.8067 10.3478 20.3107 10.8267 19.7805C11.3056 19.2503 11.7588 18.7457 12.1864 18.2668C12.614 17.7879 12.8962 17.48 13.0331 17.3432C13.2041 17.1722 13.4607 16.984 13.8027 16.7788C14.1448 16.5735 14.4698 16.5735 14.7776 16.7788C14.9829 16.8814 15.325 17.0867 15.8039 17.3945C16.2828 17.7024 16.7959 18.0274 17.3432 18.3694L18.9852 19.4983C19.5325 19.8404 20.0114 20.1311 20.4219 20.3706C20.8324 20.6442 21.2514 20.8153 21.679 20.8837C22.1066 20.9521 22.5086 20.9607 22.8848 20.9093C23.2611 20.858 23.6117 20.7811 23.9367 20.6785C24.2617 20.5758 24.5097 20.4732 24.6807 20.3706C24.8518 20.268 25.2109 20.0542 25.7583 19.7292C26.3056 19.4042 26.8957 19.045 27.5285 18.6517C28.1613 18.2583 28.76 17.8905 29.3244 17.5485C29.8888 17.2064 30.2737 16.9669 30.4789 16.8301C30.821 16.6249 31.1288 16.5564 31.4025 16.6249C31.6762 16.6933 31.9498 16.8643 32.2235 17.138C32.3261 17.2406 32.5741 17.5228 32.9675 17.9846C33.3609 18.4464 33.7885 18.9595 34.2503 19.5239C34.7121 20.0884 35.1397 20.6271 35.5331 21.1403C35.9265 21.6534 36.2087 22.0125 36.3797 22.2178C36.5507 22.423 36.7389 22.5342 36.9441 22.5513C37.1494 22.5684 37.329 22.5171 37.4829 22.3974C37.6368 22.2776 37.7395 22.1152 37.7908 21.9099C37.8421 21.7047 37.7993 21.4823 37.6625 21.2429C37.5941 21.1403 37.4572 20.8324 37.252 20.3193L36.5849 18.6773C36.3455 18.0616 36.106 17.4715 35.8666 16.9071C35.6271 16.3426 35.439 15.9407 35.3022 15.7013C35.0285 15.1539 34.8831 14.7434 34.866 14.4698C34.8489 14.1961 35.0285 13.9396 35.4048 13.7001C35.4732 13.6659 35.858 13.4179 36.5593 12.9561C37.2605 12.4943 38.0473 11.9897 38.9196 11.4424C39.7919 10.8951 40.63 10.3649 41.4339 9.85177C42.2377 9.33865 42.7936 8.99658 43.1015 8.82554V8.82554Z" fill="white"/>
</svg>
