<svg width="46" height="38" viewBox="0 0 46 38" fill="none" xmlns="http://www.w3.org/2000/svg">
<path fill-rule="evenodd" clip-rule="evenodd" d="M45.7891 4.4108C44.4922 6.30999 42.9228 7.92779 41.0806 9.26415C41.1005 9.53443 41.1104 9.94102 41.1104 10.484C41.1104 13.003 40.7422 15.5159 40.0058 18.0225C39.2695 20.5292 38.1513 22.9354 36.6513 25.2412C35.1512 27.5471 33.3649 29.5863 31.2921 31.3591C29.2193 33.1318 26.7201 34.5463 23.7945 35.6025C20.8688 36.6587 17.7411 37.1868 14.4113 37.1868C9.16252 37.1868 4.35873 35.7822 0 32.9731C0.67687 33.05 1.43184 33.0884 2.2649 33.0884C6.62363 33.0884 10.5076 31.7521 13.9167 29.0793C11.8836 29.0396 10.0625 28.4148 8.45339 27.2049C6.84432 25.995 5.73976 24.4503 5.13971 22.5709C5.77941 22.6676 6.37074 22.716 6.91374 22.716C7.7468 22.716 8.56993 22.6094 9.38316 22.3961C7.21374 21.9498 5.4174 20.8701 3.99427 19.1568C2.57111 17.4436 1.85953 15.4539 1.85953 13.1878V13.0725C3.17607 13.8088 4.59057 14.2055 6.10294 14.2626C4.82363 13.4097 3.80705 12.2964 3.05334 10.9229C2.29962 9.54929 1.92151 8.05796 1.91903 6.44883C1.91903 4.743 2.34548 3.16491 3.19839 1.71445C5.54138 4.60046 8.39391 6.90999 11.7559 8.64305C15.1179 10.3762 18.7155 11.3394 22.5486 11.5328C22.3949 10.7964 22.318 10.0799 22.318 9.38316C22.318 6.78727 23.2329 4.57444 25.0627 2.74467C26.8925 0.91486 29.1053 0 31.7012 0C34.4136 0 36.6996 0.988032 38.5591 2.9641C40.6715 2.55745 42.6575 1.80249 44.517 0.699188C43.8005 2.92566 42.4257 4.65005 40.3926 5.87236C42.1951 5.679 43.9964 5.19427 45.7966 4.41821L45.7891 4.4108Z" fill="white"/>
</svg>
