<svg width="52" height="43" viewBox="0 0 52 43" fill="none" xmlns="http://www.w3.org/2000/svg">
<path d="M52 27.1624C52 19.8023 44.6348 13.8079 36.3677 13.8079C27.6107 13.8079 20.7145 19.8075 20.7145 27.1624C20.7145 34.5329 27.6107 40.5168 36.3677 40.5168C38.2025 40.5168 40.053 40.0529 41.893 39.5942L46.9387 42.3568L45.5522 37.7594C49.2478 34.9863 52 31.3115 52 27.1624ZM31.5253 25.1191C30.3733 25.1191 29.4403 24.186 29.4403 23.0341C29.4403 21.8821 30.3733 20.9491 31.5253 20.9491C32.6773 20.9491 33.6103 21.8821 33.6103 23.0341C33.6103 24.1808 32.6773 25.1191 31.5253 25.1191ZM41.6532 25.1034C40.5012 25.1034 39.5682 24.1704 39.5682 23.0184C39.5682 21.8665 40.5012 20.9334 41.6532 20.9334C42.8052 20.9334 43.7382 21.8665 43.7382 23.0184C43.7382 24.1704 42.8052 25.1034 41.6532 25.1034Z" fill="white"/>
<path d="M18.4054 0C8.28789 0 0 6.89615 0 15.6532C0 20.7093 2.75742 24.8585 7.36528 28.0798L5.52526 33.6155L11.9575 30.3889C14.2614 30.8424 16.1067 31.3115 18.4054 31.3115C18.984 31.3115 19.5573 31.2855 20.1255 31.2386C19.7658 30.0084 19.5573 28.7209 19.5573 27.3813C19.5573 19.3384 26.4639 12.8124 35.2053 12.8124C35.8047 12.8124 36.3937 12.8541 36.9775 12.9218C35.3825 5.50962 27.4543 0 18.4054 0ZM12.2233 12.6299C10.842 12.6299 9.72133 11.5092 9.72133 10.1279C9.72133 8.74659 10.842 7.6259 12.2233 7.6259C13.6047 7.6259 14.7253 8.74659 14.7253 10.1279C14.7253 11.5092 13.6047 12.6299 12.2233 12.6299ZM25.0774 12.6299C23.6961 12.6299 22.5754 11.5092 22.5754 10.1279C22.5754 8.74659 23.6961 7.6259 25.0774 7.6259C26.4587 7.6259 27.5794 8.74659 27.5794 10.1279C27.5794 11.5092 26.4587 12.6299 25.0774 12.6299Z" fill="white"/>
</svg>
